// Created by Tree IT
mtllib Resinwood_Tree_imposter_LOD5.mtl
o tree
# Position
v -31.16440 61.07269 0.96979 0.49412 0.50588 0.49804 1.00000
v 31.11927 61.07269 0.96979 0.49412 0.50588 0.49804 1.00000
v -31.16440 -1.66191 0.96979 0.49412 0.50588 0.49804 1.00000
v 31.11927 -1.66191 0.96979 0.49412 0.50588 0.49804 1.00000
v -0.02256 68.04320 0.96979 0.49412 0.50588 0.49804 1.00000
v -0.02256 -1.66191 0.96979 0.49412 0.50588 0.49804 0.00000
v -0.02256 61.07269 31.13407 0.49412 0.50588 0.49804 1.00000
v -0.02256 61.07269 -29.19450 0.49412 0.50588 0.49804 1.00000
v -0.02256 -1.66191 31.13407 0.49412 0.50588 0.49804 1.00000
v -0.02256 -1.66191 -29.19450 0.49412 0.50588 0.49804 1.00000
v -0.02256 68.04320 0.96979 0.49412 0.50588 0.49804 1.00000
v -0.02256 -1.66191 0.96979 0.49412 0.50588 0.49804 0.00000
v -31.16440 61.07269 0.96979 0.49412 0.50588 0.49804 1.00000
v 31.11927 61.07269 0.96979 0.49412 0.50588 0.49804 1.00000
v -31.16440 -1.66191 0.96979 0.49412 0.50588 0.49804 1.00000
v 31.11927 -1.66191 0.96979 0.49412 0.50588 0.49804 1.00000
v -0.02256 68.04320 0.96979 0.49412 0.50588 0.49804 1.00000
v -0.02256 -1.66191 0.96979 0.49412 0.50588 0.49804 0.00000
v -0.02256 61.07269 31.13407 0.49412 0.50588 0.49804 1.00000
v -0.02256 61.07269 -29.19450 0.49412 0.50588 0.49804 1.00000
v -0.02256 -1.66191 31.13407 0.49412 0.50588 0.49804 1.00000
v -0.02256 -1.66191 -29.19450 0.49412 0.50588 0.49804 1.00000
v -0.02256 68.04320 0.96979 0.49412 0.50588 0.49804 1.00000
v -0.02256 -1.66191 0.96979 0.49412 0.50588 0.49804 0.00000
# Normals
vn 0.00000 0.00000 1.00000
vn 0.00000 0.00000 1.00000
vn 0.00000 0.00000 1.00000
vn 0.00000 0.00000 1.00000
vn 0.00000 0.00000 1.00000
vn 0.00000 0.00000 0.00000
vn 1.00000 0.00000 0.00000
vn 1.00000 0.00000 0.00000
vn 1.00000 0.00000 0.00000
vn 1.00000 0.00000 0.00000
vn 1.00000 0.00000 0.00000
vn 0.00000 0.00000 0.00000
vn 0.00000 0.00000 -1.00000
vn 0.00000 0.00000 -1.00000
vn 0.00000 0.00000 -1.00000
vn 0.00000 0.00000 -1.00000
vn 0.00000 0.00000 -1.00000
vn 0.00000 0.00000 0.00000
vn -1.00000 0.00000 0.00000
vn -1.00000 0.00000 0.00000
vn -1.00000 0.00000 0.00000
vn -1.00000 0.00000 0.00000
vn -1.00000 0.00000 0.00000
vn 0.00000 0.00000 0.00000
# Uv
vt 0.00000 0.95000
vt 0.50000 0.95000
vt 0.00000 0.50000
vt 0.50000 0.50000
vt 0.25000 1.00000
vt 0.25000 0.50000
vt 0.50000 0.95000
vt 1.00000 0.95000
vt 0.50000 0.50000
vt 1.00000 0.50000
vt 0.75000 1.00000
vt 0.75000 0.50000
vt 0.50000 0.45000
vt 0.00000 0.45000
vt 0.50000 0.00000
vt 0.00000 0.00000
vt 0.25000 0.50000
vt 0.25000 0.00000
vt 1.00000 0.45000
vt 0.50000 0.45000
vt 1.00000 0.00000
vt 0.50000 0.00000
vt 0.75000 0.50000
vt 0.75000 0.00000

g Resinwood_Tree_imposter Imposter
usemtl Resinwood_Tree_imposter Imposter
f 2/2/2 1/1/1 3/3/3
f 4/4/4 2/2/2 3/3/3
f 2/2/2 5/5/5 1/1/1
f 4/4/4 3/3/3 6/6/6
f 8/8/8 7/7/7 9/9/9
f 10/10/10 8/8/8 9/9/9
f 8/8/8 11/11/11 7/7/7
f 10/10/10 9/9/9 12/12/12
f 15/15/15 13/13/13 14/14/14
f 15/15/15 14/14/14 16/16/16
f 13/13/13 17/17/17 14/14/14
f 18/18/18 15/15/15 16/16/16
f 21/21/21 19/19/19 20/20/20
f 21/21/21 20/20/20 22/22/22
f 19/19/19 23/23/23 20/20/20
f 24/24/24 21/21/21 22/22/22

