// Created by Tree IT
mtllib Resinwood_Tree_L_branches_LOD1.mtl
o tree
# Position
v -1.06579 25.92282 -0.86278 0.49412 0.50588 0.49804 1.00000
v -0.48534 25.97664 0.09540 0.49412 0.50588 0.49804 1.00000
v -0.86725 27.32991 0.69926 0.49412 0.50588 0.49804 1.00000
v -1.52849 27.54970 -0.10137 0.49412 0.50588 0.49804 1.00000
v -1.93927 25.61851 0.11894 0.49412 0.50588 0.49804 1.00000
v -1.26748 25.77275 0.94477 0.49412 0.50588 0.49804 1.00000
v -0.48534 25.97664 0.09540 0.49412 0.50588 0.49804 1.00000
v -1.06579 25.92282 -0.86278 0.49412 0.50588 0.49804 1.00000
v 0.32468 26.03134 1.43240 0.49412 0.50588 0.49804 1.00000
v 0.07732 27.05353 1.83775 0.49412 0.50588 0.49804 1.00000
v -0.31942 25.96000 2.10243 0.49412 0.50588 0.49804 1.00000
v 0.32468 26.03134 1.43240 0.49412 0.50588 0.49804 1.00000
v 1.16592 26.07626 2.81419 0.49412 0.50588 0.49804 1.00000
v 1.06499 26.78621 3.02860 0.49412 0.50588 0.49804 1.00000
v 0.66600 26.13572 3.30450 0.49412 0.50588 0.49804 1.00000
v 1.16592 26.07626 2.81419 0.49412 0.50588 0.49804 1.00000
v 2.16362 26.09896 4.39241 0.49412 0.50588 0.49804 1.00000
v 2.21461 26.53325 4.43759 0.49412 0.50588 0.49804 1.00000
v 1.80213 26.28006 4.70862 0.49412 0.50588 0.49804 1.00000
v 2.16362 26.09896 4.39241 0.49412 0.50588 0.49804 1.00000
v 4.67831 24.74078 10.56873 0.49412 0.50588 0.49804 1.00000
v 4.96406 24.93145 10.63127 0.49412 0.50588 0.49804 1.00000
v 4.66345 25.08434 10.72594 0.49412 0.50588 0.49804 1.00000
v 4.67831 24.74078 10.56873 0.49412 0.50588 0.49804 1.00000
v 4.65527 23.65676 15.08866 0.49412 0.50588 0.49804 1.00000
v 4.87397 23.58928 15.10521 0.49412 0.50588 0.49804 1.00000
v 4.79950 23.82052 15.13329 0.49412 0.50588 0.49804 1.00000
v 4.65527 23.65676 15.08866 0.49412 0.50588 0.49804 1.00000
v 3.57171 25.02155 19.27896 0.49412 0.50588 0.49804 1.00000
v 3.57171 25.02155 19.27896 0.49412 0.50588 0.49804 1.00000
v -1.69188 24.24204 -0.69040 0.49412 0.50588 0.49804 1.00000
v -0.92442 24.58099 -0.55703 0.49412 0.50588 0.49804 1.00000
v -0.65146 26.30540 0.03076 0.49412 0.50588 0.49804 1.00000
v -1.33429 26.22260 -0.02353 0.49412 0.50588 0.49804 1.00000
v -1.33466 24.01238 0.66892 0.49412 0.50588 0.49804 1.00000
v -0.63935 24.40880 0.69315 0.49412 0.50588 0.49804 1.00000
v -0.92442 24.58099 -0.55703 0.49412 0.50588 0.49804 1.00000
v -1.69188 24.24204 -0.69040 0.49412 0.50588 0.49804 1.00000
v 0.44787 25.14735 -0.32073 0.49412 0.50588 0.49804 1.00000
v 0.60394 26.49388 0.11392 0.49412 0.50588 0.49804 1.00000
v 0.61709 25.06422 0.73157 0.49412 0.50588 0.49804 1.00000
v 0.44787 25.14735 -0.32073 0.49412 0.50588 0.49804 1.00000
v 1.45463 25.55739 -0.14614 0.49412 0.50588 0.49804 1.00000
v 1.53049 26.63549 0.17193 0.49412 0.50588 0.49804 1.00000
v 1.54049 25.53891 0.75763 0.49412 0.50588 0.49804 1.00000
v 1.45463 25.55739 -0.14614 0.49412 0.50588 0.49804 1.00000
v 2.93722 26.14114 0.10359 0.49412 0.50588 0.49804 1.00000
v 2.90907 26.87361 0.25478 0.49412 0.50588 0.49804 1.00000
v 2.90768 26.20608 0.79943 0.49412 0.50588 0.49804 1.00000
v 2.93722 26.14114 0.10359 0.49412 0.50588 0.49804 1.00000
v 4.39338 26.69066 0.32878 0.49412 0.50588 0.49804 1.00000
v 4.27381 27.15904 0.34116 0.49412 0.50588 0.49804 1.00000
v 4.26049 26.81476 0.85519 0.49412 0.50588 0.49804 1.00000
v 4.39338 26.69066 0.32878 0.49412 0.50588 0.49804 1.00000
v 10.98196 27.03130 2.58239 0.49412 0.50588 0.49804 1.00000
v 11.09028 27.30990 2.36387 0.49412 0.50588 0.49804 1.00000
v 11.00054 27.31540 2.76190 0.49412 0.50588 0.49804 1.00000
v 10.98196 27.03130 2.58239 0.49412 0.50588 0.49804 1.00000
v 15.44098 27.39816 4.68548 0.49412 0.50588 0.49804 1.00000
v 15.56958 27.45619 4.50252 0.49412 0.50588 0.49804 1.00000
v 15.42176 27.61742 4.64258 0.49412 0.50588 0.49804 1.00000
v 15.44098 27.39816 4.68548 0.49412 0.50588 0.49804 1.00000
v 17.44341 30.18307 8.23495 0.49412 0.50588 0.49804 1.00000
v 17.44341 30.18307 8.23495 0.49412 0.50588 0.49804 1.00000
v -2.11499 26.03616 -0.21012 0.49412 0.50588 0.49804 1.00000
v -1.19899 26.38461 -0.75930 0.49412 0.50588 0.49804 1.00000
v -0.64643 27.83412 -0.61906 0.49412 0.50588 0.49804 1.00000
v -1.42781 27.73842 -0.09894 0.49412 0.50588 0.49804 1.00000
v -1.01030 25.91160 0.53904 0.49412 0.50588 0.49804 1.00000
v -0.26259 26.32952 -0.06943 0.49412 0.50588 0.49804 1.00000
v -1.19899 26.38461 -0.75930 0.49412 0.50588 0.49804 1.00000
v -2.11499 26.03616 -0.21012 0.49412 0.50588 0.49804 1.00000
v 0.07846 26.84477 -1.52629 0.49412 0.50588 0.49804 1.00000
v 0.45964 27.99072 -1.37886 0.49412 0.50588 0.49804 1.00000
v 0.78518 26.87839 -0.92935 0.49412 0.50588 0.49804 1.00000
v 0.07846 26.84477 -1.52629 0.49412 0.50588 0.49804 1.00000
v 1.39935 27.30770 -2.32174 0.49412 0.50588 0.49804 1.00000
v 1.61308 28.16815 -2.18124 0.49412 0.50588 0.49804 1.00000
v 1.87436 27.42696 -1.82255 0.49412 0.50588 0.49804 1.00000
v 1.39935 27.30770 -2.32174 0.49412 0.50588 0.49804 1.00000
v 2.91637 27.81991 -3.25264 0.49412 0.50588 0.49804 1.00000
v 2.96475 28.42556 -3.12483 0.49412 0.50588 0.49804 1.00000
v 3.15895 28.01286 -2.84203 0.49412 0.50588 0.49804 1.00000
v 2.91637 27.81991 -3.25264 0.49412 0.50588 0.49804 1.00000
v 7.98906 27.75522 -7.32290 0.49412 0.50588 0.49804 1.00000
v 7.86092 28.15977 -7.45345 0.49412 0.50588 0.49804 1.00000
v 8.20049 28.10984 -7.17851 0.49412 0.50588 0.49804 1.00000
v 7.98906 27.75522 -7.32290 0.49412 0.50588 0.49804 1.00000
v 12.17189 29.51697 -9.58970 0.49412 0.50588 0.49804 1.00000
v 12.04286 29.61589 -9.75767 0.49412 0.50588 0.49804 1.00000
v 12.03671 29.71518 -9.53687 0.49412 0.50588 0.49804 1.00000
v 12.17189 29.51697 -9.58970 0.49412 0.50588 0.49804 1.00000
v 16.25899 32.17262 -10.04183 0.49412 0.50588 0.49804 1.00000
v 16.25899 32.17262 -10.04183 0.49412 0.50588 0.49804 1.00000
v -1.62409 22.75997 0.65927 0.49412 0.50588 0.49804 1.00000
v -1.58453 23.02034 0.00673 0.49412 0.50588 0.49804 1.00000
v -1.09756 24.82973 -0.58772 0.49412 0.50588 0.49804 1.00000
v -1.11751 24.80243 -0.07837 0.49412 0.50588 0.49804 1.00000
v -0.23471 22.55430 0.15849 0.49412 0.50588 0.49804 1.00000
v -0.29842 22.87315 -0.41303 0.49412 0.50588 0.49804 1.00000
v -1.58453 23.02034 0.00673 0.49412 0.50588 0.49804 1.00000
v -1.62409 22.75997 0.65927 0.49412 0.50588 0.49804 1.00000
v -1.51441 23.44376 -1.15905 0.49412 0.50588 0.49804 1.00000
v -1.08356 24.91464 -1.54492 0.49412 0.50588 0.49804 1.00000
v -0.41602 23.38506 -1.44532 0.49412 0.50588 0.49804 1.00000
v -1.51441 23.44376 -1.15905 0.49412 0.50588 0.49804 1.00000
v -1.46228 23.74821 -2.01440 0.49412 0.50588 0.49804 1.00000
v -1.07712 24.97985 -2.25407 0.49412 0.50588 0.49804 1.00000
v -0.50497 23.75329 -2.20390 0.49412 0.50588 0.49804 1.00000
v -1.46228 23.74821 -2.01440 0.49412 0.50588 0.49804 1.00000
v -1.38898 24.17686 -3.27252 0.49412 0.50588 0.49804 1.00000
v -1.07515 25.10250 -3.31969 0.49412 0.50588 0.49804 1.00000
v -0.62901 24.26333 -3.32692 0.49412 0.50588 0.49804 1.00000
v -1.38898 24.17686 -3.27252 0.49412 0.50588 0.49804 1.00000
v -1.32679 24.57743 -4.50459 0.49412 0.50588 0.49804 1.00000
v -1.07592 25.26968 -4.38762 0.49412 0.50588 0.49804 1.00000
v -0.72675 24.72102 -4.43814 0.49412 0.50588 0.49804 1.00000
v -1.32679 24.57743 -4.50459 0.49412 0.50588 0.49804 1.00000
v -0.57679 24.51392 -9.95792 0.49412 0.50588 0.49804 1.00000
v -0.61224 25.08662 -10.01961 0.49412 0.50588 0.49804 1.00000
v -0.10362 24.82726 -9.99166 0.49412 0.50588 0.49804 1.00000
v -0.57679 24.51392 -9.95792 0.49412 0.50588 0.49804 1.00000
v -0.50116 25.07029 -14.91656 0.49412 0.50588 0.49804 1.00000
v -0.65282 25.34308 -14.89375 0.49412 0.50588 0.49804 1.00000
v -0.33145 25.34425 -14.85094 0.49412 0.50588 0.49804 1.00000
v -0.50116 25.07029 -14.91656 0.49412 0.50588 0.49804 1.00000
v 1.94194 26.54936 -18.61043 0.49412 0.50588 0.49804 1.00000
v 1.80429 26.68365 -18.67801 0.49412 0.50588 0.49804 1.00000
v 1.91012 26.74804 -18.50487 0.49412 0.50588 0.49804 1.00000
v 1.94194 26.54936 -18.61043 0.49412 0.50588 0.49804 1.00000
v 4.82058 28.68987 -21.15077 0.49412 0.50588 0.49804 1.00000
v 4.82058 28.68987 -21.15077 0.49412 0.50588 0.49804 1.00000
v -1.23195 23.96466 0.83143 0.49412 0.50588 0.49804 1.00000
v -1.59766 24.15618 0.30315 0.49412 0.50588 0.49804 1.00000
v -1.55821 25.85468 -0.55355 0.49412 0.50588 0.49804 1.00000
v -1.25096 25.88173 -0.16067 0.49412 0.50588 0.49804 1.00000
v -0.42927 23.69433 -0.33318 0.49412 0.50588 0.49804 1.00000
v -0.83399 23.95189 -0.74384 0.49412 0.50588 0.49804 1.00000
v -1.59766 24.15618 0.30315 0.49412 0.50588 0.49804 1.00000
v -1.23195 23.96466 0.83143 0.49412 0.50588 0.49804 1.00000
v -2.25066 24.45884 -0.63845 0.49412 0.50588 0.49804 1.00000
v -2.14979 25.84031 -1.28332 0.49412 0.50588 0.49804 1.00000
v -1.56559 24.35665 -1.48104 0.49412 0.50588 0.49804 1.00000
v -2.25066 24.45884 -0.63845 0.49412 0.50588 0.49804 1.00000
v -2.72894 24.67512 -1.32956 0.49412 0.50588 0.49804 1.00000
v -2.59046 25.83242 -1.82217 0.49412 0.50588 0.49804 1.00000
v -2.10487 24.64676 -2.02092 0.49412 0.50588 0.49804 1.00000
v -2.72894 24.67512 -1.32956 0.49412 0.50588 0.49804 1.00000
v -3.43550 24.97467 -2.34276 0.49412 0.50588 0.49804 1.00000
v -3.25724 25.84624 -2.63061 0.49412 0.50588 0.49804 1.00000
v -2.89708 25.04233 -2.82295 0.49412 0.50588 0.49804 1.00000
v -3.43550 24.97467 -2.34276 0.49412 0.50588 0.49804 1.00000
v -4.13699 25.24850 -3.32702 0.49412 0.50588 0.49804 1.00000
v -3.92703 25.90484 -3.44432 0.49412 0.50588 0.49804 1.00000
v -3.66209 25.38712 -3.62887 0.49412 0.50588 0.49804 1.00000
v -4.13699 25.24850 -3.32702 0.49412 0.50588 0.49804 1.00000
v -6.22956 25.86346 -8.30181 0.49412 0.50588 0.49804 1.00000
v -6.21352 26.25147 -8.24344 0.49412 0.50588 0.49804 1.00000
v -5.81164 26.04116 -8.44034 0.49412 0.50588 0.49804 1.00000
v -6.22956 25.86346 -8.30181 0.49412 0.50588 0.49804 1.00000
v -7.55500 26.43233 -12.74697 0.49412 0.50588 0.49804 1.00000
v -7.66744 26.75589 -12.72713 0.49412 0.50588 0.49804 1.00000
v -7.33145 26.72298 -12.76719 0.49412 0.50588 0.49804 1.00000
v -7.55500 26.43233 -12.74697 0.49412 0.50588 0.49804 1.00000
v -7.32469 26.74532 -17.52311 0.49412 0.50588 0.49804 1.00000
v -7.43529 26.87337 -17.52873 0.49412 0.50588 0.49804 1.00000
v -7.26698 26.92155 -17.49294 0.49412 0.50588 0.49804 1.00000
v -7.32469 26.74532 -17.52311 0.49412 0.50588 0.49804 1.00000
v -5.83251 28.45284 -20.99245 0.49412 0.50588 0.49804 1.00000
v -5.83251 28.45284 -20.99245 0.49412 0.50588 0.49804 1.00000
v -0.05508 18.96681 0.97426 0.49412 0.50588 0.49804 1.00000
v -0.62504 19.31248 0.87152 0.49412 0.50588 0.49804 1.00000
v -1.28330 21.25397 -0.06442 0.49412 0.50588 0.49804 1.00000
v -0.87739 21.19993 -0.04159 0.49412 0.50588 0.49804 1.00000
v -0.69610 18.43765 -0.54305 0.49412 0.50588 0.49804 1.00000
v -1.17563 18.83417 -0.54735 0.49412 0.50588 0.49804 1.00000
v -0.62504 19.31248 0.87152 0.49412 0.50588 0.49804 1.00000
v -0.05508 18.96681 0.97426 0.49412 0.50588 0.49804 1.00000
v -1.64802 19.88165 0.69798 0.49412 0.50588 0.49804 1.00000
v -2.06480 21.39713 -0.08783 0.49412 0.50588 0.49804 1.00000
v -2.05037 19.47677 -0.53747 0.49412 0.50588 0.49804 1.00000
v -1.64802 19.88165 0.69798 0.49412 0.50588 0.49804 1.00000
v -2.39944 20.29176 0.57095 0.49412 0.50588 0.49804 1.00000
v -2.64682 21.50616 -0.10134 0.49412 0.50588 0.49804 1.00000
v -2.69449 19.93944 -0.52595 0.49412 0.50588 0.49804 1.00000
v -2.39944 20.29176 0.57095 0.49412 0.50588 0.49804 1.00000
v -3.50635 20.87392 0.39355 0.49412 0.50588 0.49804 1.00000
v -3.52794 21.70007 -0.11759 0.49412 0.50588 0.49804 1.00000
v -3.65181 20.58567 -0.50764 0.49412 0.50588 0.49804 1.00000
v -3.50635 20.87392 0.39355 0.49412 0.50588 0.49804 1.00000
v -4.59108 21.42517 0.23888 0.49412 0.50588 0.49804 1.00000
v -4.41443 21.94784 -0.13850 0.49412 0.50588 0.49804 1.00000
v -4.60253 21.17593 -0.50159 0.49412 0.50588 0.49804 1.00000
v -4.59108 21.42517 0.23888 0.49412 0.50588 0.49804 1.00000
v -9.40355 22.17055 -0.63024 0.49412 0.50588 0.49804 1.00000
v -9.37188 22.68938 -0.94422 0.49412 0.50588 0.49804 1.00000
v -9.31073 22.18546 -1.28110 0.49412 0.50588 0.49804 1.00000
v -9.40355 22.17055 -0.63024 0.49412 0.50588 0.49804 1.00000
v -13.85097 22.14440 -0.90420 0.49412 0.50588 0.49804 1.00000
v -13.81518 22.56100 -0.94378 0.49412 0.50588 0.49804 1.00000
v -13.82294 22.24822 -1.29740 0.49412 0.50588 0.49804 1.00000
v -13.85097 22.14440 -0.90420 0.49412 0.50588 0.49804 1.00000
v -18.09040 22.47922 -0.64087 0.49412 0.50588 0.49804 1.00000
v -18.04686 22.86030 -0.60717 0.49412 0.50588 0.49804 1.00000
v -18.09165 22.68360 -0.89835 0.49412 0.50588 0.49804 1.00000
v -18.09040 22.47922 -0.64087 0.49412 0.50588 0.49804 1.00000
v -21.90006 22.89343 -1.54045 0.49412 0.50588 0.49804 1.00000
v -21.91954 23.12406 -1.45735 0.49412 0.50588 0.49804 1.00000
v -21.82978 23.05719 -1.65751 0.49412 0.50588 0.49804 1.00000
v -21.90006 22.89343 -1.54045 0.49412 0.50588 0.49804 1.00000
v -24.61686 23.81931 -3.98497 0.49412 0.50588 0.49804 1.00000
v -24.61686 23.81931 -3.98497 0.49412 0.50588 0.49804 1.00000
v 0.11555 20.23474 0.04761 0.49412 0.50588 0.49804 1.00000
v -0.24859 20.63603 0.42488 0.49412 0.50588 0.49804 1.00000
v -1.22402 22.51848 0.21719 0.49412 0.50588 0.49804 1.00000
v -0.99757 22.38925 -0.07689 0.49412 0.50588 0.49804 1.00000
v -1.36421 19.82433 -0.43845 0.49412 0.50588 0.49804 1.00000
v -1.60382 20.28695 -0.06226 0.49412 0.50588 0.49804 1.00000
v -0.24859 20.63603 0.42488 0.49412 0.50588 0.49804 1.00000
v 0.11555 20.23474 0.04761 0.49412 0.50588 0.49804 1.00000
v -0.89912 21.30714 1.10946 0.49412 0.50588 0.49804 1.00000
v -1.65385 22.79564 0.79230 0.49412 0.50588 0.49804 1.00000
v -2.03540 21.05212 0.63442 0.49412 0.50588 0.49804 1.00000
v -0.89912 21.30714 1.10946 0.49412 0.50588 0.49804 1.00000
v -1.37734 21.79229 1.61306 0.49412 0.50588 0.49804 1.00000
v -1.97258 23.00340 1.22240 0.49412 0.50588 0.49804 1.00000
v -2.35070 21.60533 1.14997 0.49412 0.50588 0.49804 1.00000
v -1.37734 21.79229 1.61306 0.49412 0.50588 0.49804 1.00000
v -2.07700 22.48657 2.35975 0.49412 0.50588 0.49804 1.00000
v -2.45467 23.34043 1.87495 0.49412 0.50588 0.49804 1.00000
v -2.82380 22.38707 1.91669 0.49412 0.50588 0.49804 1.00000
v -2.07700 22.48657 2.35975 0.49412 0.50588 0.49804 1.00000
v -2.75100 23.15049 3.09919 0.49412 0.50588 0.49804 1.00000
v -2.94344 23.72231 2.52828 0.49412 0.50588 0.49804 1.00000
v -3.31183 23.11292 2.67029 0.49412 0.50588 0.49804 1.00000
v -2.75100 23.15049 3.09919 0.49412 0.50588 0.49804 1.00000
v -6.13222 26.48297 5.23370 0.49412 0.50588 0.49804 1.00000
v -6.02416 26.87957 4.68882 0.49412 0.50588 0.49804 1.00000
v -6.46499 26.36777 4.66090 0.49412 0.50588 0.49804 1.00000
v -6.13222 26.48297 5.23370 0.49412 0.50588 0.49804 1.00000
v -10.03042 28.05757 5.66942 0.49412 0.50588 0.49804 1.00000
v -9.97274 28.38883 5.41342 0.49412 0.50588 0.49804 1.00000
v -10.06067 28.00117 5.22994 0.49412 0.50588 0.49804 1.00000
v -10.03042 28.05757 5.66942 0.49412 0.50588 0.49804 1.00000
v -14.12327 28.97308 6.78573 0.49412 0.50588 0.49804 1.00000
v -14.13118 29.20381 6.64533 0.49412 0.50588 0.49804 1.00000
v -14.22749 29.03190 6.51819 0.49412 0.50588 0.49804 1.00000
v -14.12327 28.97308 6.78573 0.49412 0.50588 0.49804 1.00000
v -17.11063 30.00279 8.63098 0.49412 0.50588 0.49804 1.00000
v -17.07775 30.22318 8.56855 0.49412 0.50588 0.49804 1.00000
v -17.21278 30.09781 8.41883 0.49412 0.50588 0.49804 1.00000
v -17.11063 30.00279 8.63098 0.49412 0.50588 0.49804 1.00000
v -20.85443 30.64040 9.68336 0.49412 0.50588 0.49804 1.00000
v -20.85443 30.64040 9.68336 0.49412 0.50588 0.49804 1.00000
v -2.02256 34.36812 -0.31137 0.49412 0.50588 0.49804 1.00000
v 0.30812 35.63482 0.74733 0.49412 0.50588 0.49804 1.00000
v 0.51276 36.42908 1.29067 0.49412 0.50588 0.49804 1.00000
v -1.67681 35.42778 0.41425 0.49412 0.50588 0.49804 1.00000
v -1.91173 34.08616 0.69466 0.49412 0.50588 0.49804 1.00000
v 0.37120 35.43330 1.54721 0.49412 0.50588 0.49804 1.00000
v 0.30812 35.63482 0.74733 0.49412 0.50588 0.49804 1.00000
v -2.02256 34.36812 -0.31137 0.49412 0.50588 0.49804 1.00000
v 2.93894 37.04487 1.93796 0.49412 0.50588 0.49804 1.00000
v 3.01880 37.56603 2.27507 0.49412 0.50588 0.49804 1.00000
v 2.95718 36.93065 2.49958 0.49412 0.50588 0.49804 1.00000
v 2.93894 37.04487 1.93796 0.49412 0.50588 0.49804 1.00000
v 6.31983 38.83881 3.44314 0.49412 0.50588 0.49804 1.00000
v 6.26418 39.06986 3.54555 0.49412 0.50588 0.49804 1.00000
v 6.28541 38.81093 3.73781 0.49412 0.50588 0.49804 1.00000
v 6.31983 38.83881 3.44314 0.49412 0.50588 0.49804 1.00000
v 13.87298 42.01179 9.75275 0.49412 0.50588 0.49804 1.00000
v 13.87298 42.01179 9.75275 0.49412 0.50588 0.49804 1.00000
v -2.31765 33.03921 0.28526 0.49412 0.50588 0.49804 1.00000
v -1.96827 33.92628 -0.79243 0.49412 0.50588 0.49804 1.00000
v -1.37985 35.03271 -0.77048 0.49412 0.50588 0.49804 1.00000
v -1.62035 34.37004 0.24989 0.49412 0.50588 0.49804 1.00000
v -1.26024 32.81428 0.40761 0.49412 0.50588 0.49804 1.00000
v -1.05031 33.75875 -0.66978 0.49412 0.50588 0.49804 1.00000
v -1.96827 33.92628 -0.79243 0.49412 0.50588 0.49804 1.00000
v -2.31765 33.03921 0.28526 0.49412 0.50588 0.49804 1.00000
v -1.48053 35.13548 -2.29441 0.49412 0.50588 0.49804 1.00000
v -1.03887 35.97183 -2.21848 0.49412 0.50588 0.49804 1.00000
v -0.75890 35.04136 -2.17983 0.49412 0.50588 0.49804 1.00000
v -1.48053 35.13548 -2.29441 0.49412 0.50588 0.49804 1.00000
v -0.97797 36.37278 -3.84807 0.49412 0.50588 0.49804 1.00000
v -0.68296 36.95406 -3.72784 0.49412 0.50588 0.49804 1.00000
v -0.45587 36.35022 -3.74585 0.49412 0.50588 0.49804 1.00000
v -0.97797 36.37278 -3.84807 0.49412 0.50588 0.49804 1.00000
v -0.41870 37.78115 -5.64179 0.49412 0.50588 0.49804 1.00000
v -0.26477 38.12758 -5.47715 0.49412 0.50588 0.49804 1.00000
v -0.08695 37.82612 -5.55799 0.49412 0.50588 0.49804 1.00000
v -0.41870 37.78115 -5.64179 0.49412 0.50588 0.49804 1.00000
v 2.74864 41.26644 -10.79736 0.49412 0.50588 0.49804 1.00000
v 2.71591 41.40575 -10.67112 0.49412 0.50588 0.49804 1.00000
v 2.90900 41.26834 -10.63150 0.49412 0.50588 0.49804 1.00000
v 2.74864 41.26644 -10.79736 0.49412 0.50588 0.49804 1.00000
v 7.48956 44.39719 -13.12201 0.49412 0.50588 0.49804 1.00000
v 7.48956 44.39719 -13.12201 0.49412 0.50588 0.49804 1.00000
v -1.83842 37.35585 1.12685 0.49412 0.50588 0.49804 1.00000
v -3.09505 38.90875 -0.61903 0.49412 0.50588 0.49804 1.00000
v -2.86502 39.73656 -0.92987 0.49412 0.50588 0.49804 1.00000
v -1.60652 38.45758 0.65604 0.49412 0.50588 0.49804 1.00000
v -1.18533 37.27526 0.41992 0.49412 0.50588 0.49804 1.00000
v -2.55926 38.86071 -1.14408 0.49412 0.50588 0.49804 1.00000
v -3.09505 38.90875 -0.61903 0.49412 0.50588 0.49804 1.00000
v -1.83842 37.35585 1.12685 0.49412 0.50588 0.49804 1.00000
v -4.51266 40.64314 -2.59258 0.49412 0.50588 0.49804 1.00000
v -4.30695 41.18839 -2.74058 0.49412 0.50588 0.49804 1.00000
v -4.11814 40.62799 -2.91489 0.49412 0.50588 0.49804 1.00000
v -4.51266 40.64314 -2.59258 0.49412 0.50588 0.49804 1.00000
v -6.34839 42.85031 -5.11414 0.49412 0.50588 0.49804 1.00000
v -6.17285 43.09454 -5.08257 0.49412 0.50588 0.49804 1.00000
v -6.11101 42.86495 -5.21515 0.49412 0.50588 0.49804 1.00000
v -6.34839 42.85031 -5.11414 0.49412 0.50588 0.49804 1.00000
v -9.35641 47.35025 -14.05290 0.49412 0.50588 0.49804 1.00000
v -9.35641 47.35025 -14.05290 0.49412 0.50588 0.49804 1.00000
v -1.28043 35.90239 0.87099 0.49412 0.50588 0.49804 1.00000
v -3.63796 37.74375 0.73377 0.49412 0.50588 0.49804 1.00000
v -3.88028 38.58533 0.40470 0.49412 0.50588 0.49804 1.00000
v -1.66915 37.04352 0.47237 0.49412 0.50588 0.49804 1.00000
v -1.52785 35.85140 -0.10260 0.49412 0.50588 0.49804 1.00000
v -3.83723 37.70315 -0.02753 0.49412 0.50588 0.49804 1.00000
v -3.63796 37.74375 0.73377 0.49412 0.50588 0.49804 1.00000
v -1.28043 35.90239 0.87099 0.49412 0.50588 0.49804 1.00000
v -6.29920 39.80093 0.57725 0.49412 0.50588 0.49804 1.00000
v -6.40776 40.32911 0.33744 0.49412 0.50588 0.49804 1.00000
v -6.45199 39.76656 0.06170 0.49412 0.50588 0.49804 1.00000
v -6.29920 39.80093 0.57725 0.49412 0.50588 0.49804 1.00000
v -9.71349 42.41927 0.39585 0.49412 0.50588 0.49804 1.00000
v -9.67474 42.60639 0.26137 0.49412 0.50588 0.49804 1.00000
v -9.81757 42.38439 0.15141 0.49412 0.50588 0.49804 1.00000
v -9.71349 42.41927 0.39585 0.49412 0.50588 0.49804 1.00000
v -17.30782 46.22005 -2.91712 0.49412 0.50588 0.49804 1.00000
v -17.30782 46.22005 -2.91712 0.49412 0.50588 0.49804 1.00000
v -1.11181 35.35303 0.08868 0.49412 0.50588 0.49804 1.00000
v -2.30201 36.94960 2.09289 0.49412 0.50588 0.49804 1.00000
v -2.78398 37.73820 2.30106 0.49412 0.50588 0.49804 1.00000
v -1.72820 36.42904 0.45222 0.49412 0.50588 0.49804 1.00000
v -2.12223 35.20130 0.03804 0.49412 0.50588 0.49804 1.00000
v -3.08537 36.81145 2.04370 0.49412 0.50588 0.49804 1.00000
v -2.30201 36.94960 2.09289 0.49412 0.50588 0.49804 1.00000
v -1.11181 35.35303 0.08868 0.49412 0.50588 0.49804 1.00000
v -3.64339 38.72980 4.35501 0.49412 0.50588 0.49804 1.00000
v -3.97565 39.21654 4.42404 0.49412 0.50588 0.49804 1.00000
v -4.16661 38.60139 4.31697 0.49412 0.50588 0.49804 1.00000
v -3.64339 38.72980 4.35501 0.49412 0.50588 0.49804 1.00000
v -5.34674 40.99582 7.26137 0.49412 0.50588 0.49804 1.00000
v -5.50271 41.15031 7.17850 0.49412 0.50588 0.49804 1.00000
v -5.57866 40.86485 7.23100 0.49412 0.50588 0.49804 1.00000
v -5.34674 40.99582 7.26137 0.49412 0.50588 0.49804 1.00000
v -11.58597 45.91644 15.25252 0.49412 0.50588 0.49804 1.00000
v -11.58597 45.91644 15.25252 0.49412 0.50588 0.49804 1.00000
v -1.38348 39.02045 0.25889 0.49412 0.50588 0.49804 1.00000
v -0.46031 40.63469 2.44281 0.49412 0.50588 0.49804 1.00000
v -0.76369 41.31841 2.86487 0.49412 0.50588 0.49804 1.00000
v -1.70522 39.95746 0.87255 0.49412 0.50588 0.49804 1.00000
v -2.12650 38.82018 0.76939 0.49412 0.50588 0.49804 1.00000
v -1.04457 40.47483 2.83158 0.49412 0.50588 0.49804 1.00000
v -0.46031 40.63469 2.44281 0.49412 0.50588 0.49804 1.00000
v -1.38348 39.02045 0.25889 0.49412 0.50588 0.49804 1.00000
v 0.58028 42.43646 4.90660 0.49412 0.50588 0.49804 1.00000
v 0.31390 42.85485 5.13821 0.49412 0.50588 0.49804 1.00000
v 0.18328 42.31699 5.16106 0.49412 0.50588 0.49804 1.00000
v 0.58028 42.43646 4.90660 0.49412 0.50588 0.49804 1.00000
v 1.93218 44.72984 8.05548 0.49412 0.50588 0.49804 1.00000
v 1.70719 44.85873 8.07672 0.49412 0.50588 0.49804 1.00000
v 1.74393 44.64977 8.16598 0.49412 0.50588 0.49804 1.00000
v 1.93218 44.72984 8.05548 0.49412 0.50588 0.49804 1.00000
v 3.78223 48.63978 15.50296 0.49412 0.50588 0.49804 1.00000
v 3.78223 48.63978 15.50296 0.49412 0.50588 0.49804 1.00000
v -2.09253 45.54013 1.59477 0.49412 0.50588 0.49804 1.00000
v -3.38865 47.48575 0.37894 0.49412 0.50588 0.49804 1.00000
v -3.34168 48.16887 -0.01174 0.49412 0.50588 0.49804 1.00000
v -2.12565 46.48449 1.07182 0.49412 0.50588 0.49804 1.00000
v -1.69981 45.46333 0.84019 0.49412 0.50588 0.49804 1.00000
v -3.08870 47.42234 -0.20426 0.49412 0.50588 0.49804 1.00000
v -3.38865 47.48575 0.37894 0.49412 0.50588 0.49804 1.00000
v -2.09253 45.54013 1.59477 0.49412 0.50588 0.49804 1.00000
v -4.85183 49.66142 -0.99529 0.49412 0.50588 0.49804 1.00000
v -4.74050 50.07090 -1.24909 0.49412 0.50588 0.49804 1.00000
v -4.66490 49.60830 -1.38492 0.49412 0.50588 0.49804 1.00000
v -4.85183 49.66142 -0.99529 0.49412 0.50588 0.49804 1.00000
v -6.73683 52.43487 -2.74383 0.49412 0.50588 0.49804 1.00000
v -6.55688 52.53717 -2.84274 0.49412 0.50588 0.49804 1.00000
v -6.67702 52.38693 -2.92207 0.49412 0.50588 0.49804 1.00000
v -6.73683 52.43487 -2.74383 0.49412 0.50588 0.49804 1.00000
v -11.09821 58.67596 -5.31439 0.49412 0.50588 0.49804 1.00000
v -11.09821 58.67596 -5.31439 0.49412 0.50588 0.49804 1.00000
v -1.83557 48.46185 1.02388 0.49412 0.50588 0.49804 1.00000
v -2.45320 51.46080 3.99394 0.49412 0.50588 0.49804 1.00000
v -2.87334 52.05670 4.11157 0.49412 0.50588 0.49804 1.00000
v -2.42741 49.30880 1.20960 0.49412 0.50588 0.49804 1.00000
v -2.63671 48.26911 0.92227 0.49412 0.50588 0.49804 1.00000
v -3.02741 51.32487 3.91305 0.49412 0.50588 0.49804 1.00000
v -2.45320 51.46080 3.99394 0.49412 0.50588 0.49804 1.00000
v -1.83557 48.46185 1.02388 0.49412 0.50588 0.49804 1.00000
v -3.15234 54.82105 7.34119 0.49412 0.50588 0.49804 1.00000
v -3.38195 55.15311 7.41007 0.49412 0.50588 0.49804 1.00000
v -3.46552 54.74466 7.29027 0.49412 0.50588 0.49804 1.00000
v -3.15234 54.82105 7.34119 0.49412 0.50588 0.49804 1.00000
v -4.02059 59.10873 11.63183 0.49412 0.50588 0.49804 1.00000
v -4.04310 59.15138 11.65085 0.49412 0.50588 0.49804 1.00000
v -4.04792 59.09835 11.62321 0.49412 0.50588 0.49804 1.00000
v -4.02059 59.10873 11.63183 0.49412 0.50588 0.49804 1.00000
v -2.61467 47.40544 0.81964 0.49412 0.50588 0.49804 1.00000
v -1.19591 49.16394 0.22825 0.49412 0.50588 0.49804 1.00000
v -0.97353 49.82125 0.58783 0.49412 0.50588 0.49804 1.00000
v -2.28757 48.32563 1.23259 0.49412 0.50588 0.49804 1.00000
v -2.27197 47.26939 1.57277 0.49412 0.50588 0.49804 1.00000
v -0.92627 49.04542 0.79963 0.49412 0.50588 0.49804 1.00000
v -1.19591 49.16394 0.22825 0.49412 0.50588 0.49804 1.00000
v -2.61467 47.40544 0.81964 0.49412 0.50588 0.49804 1.00000
v 0.40967 51.13128 -0.43710 0.49412 0.50588 0.49804 1.00000
v 0.53689 51.51524 -0.14800 0.49412 0.50588 0.49804 1.00000
v 0.60158 51.02794 -0.07772 0.49412 0.50588 0.49804 1.00000
v 0.40967 51.13128 -0.43710 0.49412 0.50588 0.49804 1.00000
v 2.46461 53.63544 -1.31117 0.49412 0.50588 0.49804 1.00000
v 2.49102 53.72210 -1.09876 0.49412 0.50588 0.49804 1.00000
v 2.57965 53.54987 -1.18868 0.49412 0.50588 0.49804 1.00000
v 2.46461 53.63544 -1.31117 0.49412 0.50588 0.49804 1.00000
v 7.48599 61.23812 -3.83326 0.49412 0.50588 0.49804 1.00000
v 7.48599 61.23812 -3.83326 0.49412 0.50588 0.49804 1.00000
v 2.36134 22.09616 13.98889 0.49412 0.50588 0.49804 1.00000
v 2.51696 21.93429 14.03622 0.49412 0.50588 0.49804 1.00000
v 2.48698 22.13812 14.16797 0.49412 0.50588 0.49804 1.00000
v 2.36134 22.09616 13.98889 0.49412 0.50588 0.49804 1.00000
v -1.00940 22.37742 17.56577 0.49412 0.50588 0.49804 1.00000
v -1.00940 22.37742 17.56577 0.49412 0.50588 0.49804 1.00000
v 14.91231 25.21204 4.94947 0.49412 0.50588 0.49804 1.00000
v 15.06561 25.19097 4.77789 0.49412 0.50588 0.49804 1.00000
v 15.01311 25.40841 4.90992 0.49412 0.50588 0.49804 1.00000
v 14.91231 25.21204 4.94947 0.49412 0.50588 0.49804 1.00000
v 17.45763 26.71279 8.98556 0.49412 0.50588 0.49804 1.00000
v 17.45763 26.71279 8.98556 0.49412 0.50588 0.49804 1.00000
v 12.78269 27.62985 -9.43870 0.49412 0.50588 0.49804 1.00000
v 12.72014 27.68633 -9.65675 0.49412 0.50588 0.49804 1.00000
v 12.72728 27.86328 -9.49155 0.49412 0.50588 0.49804 1.00000
v 12.78269 27.62985 -9.43870 0.49412 0.50588 0.49804 1.00000
v 17.86070 28.53783 -9.74958 0.49412 0.50588 0.49804 1.00000
v 17.86070 28.53783 -9.74958 0.49412 0.50588 0.49804 1.00000
v -1.60408 23.57178 -14.13740 0.49412 0.50588 0.49804 1.00000
v -1.79036 23.82129 -14.16869 0.49412 0.50588 0.49804 1.00000
v -1.47662 23.85611 -14.24262 0.49412 0.50588 0.49804 1.00000
v -1.60408 23.57178 -14.13740 0.49412 0.50588 0.49804 1.00000
v -0.33656 23.45314 -18.19639 0.49412 0.50588 0.49804 1.00000
v -0.49970 23.53556 -18.28661 0.49412 0.50588 0.49804 1.00000
v -0.37750 23.67628 -18.18372 0.49412 0.50588 0.49804 1.00000
v -0.33656 23.45314 -18.19639 0.49412 0.50588 0.49804 1.00000
v 1.59408 24.38569 -21.53945 0.49412 0.50588 0.49804 1.00000
v 1.59408 24.38569 -21.53945 0.49412 0.50588 0.49804 1.00000
v -8.04453 25.68986 -12.27718 0.49412 0.50588 0.49804 1.00000
v -8.23005 25.97683 -12.30817 0.49412 0.50588 0.49804 1.00000
v -7.90648 26.00361 -12.40897 0.49412 0.50588 0.49804 1.00000
v -8.04453 25.68986 -12.27718 0.49412 0.50588 0.49804 1.00000
v -8.22265 24.97832 -16.74885 0.49412 0.50588 0.49804 1.00000
v -8.36253 25.07072 -16.77238 0.49412 0.50588 0.49804 1.00000
v -8.21077 25.16491 -16.76723 0.49412 0.50588 0.49804 1.00000
v -8.22265 24.97832 -16.74885 0.49412 0.50588 0.49804 1.00000
v -7.26708 26.09232 -20.37420 0.49412 0.50588 0.49804 1.00000
v -7.26708 26.09232 -20.37420 0.49412 0.50588 0.49804 1.00000
v -13.29017 21.81415 0.02010 0.49412 0.50588 0.49804 1.00000
v -13.36518 22.22732 0.02862 0.49412 0.50588 0.49804 1.00000
v -13.54824 21.91822 -0.27779 0.49412 0.50588 0.49804 1.00000
v -13.29017 21.81415 0.02010 0.49412 0.50588 0.49804 1.00000
v -16.02843 21.34517 2.70924 0.49412 0.50588 0.49804 1.00000
v -16.03597 21.72738 2.75528 0.49412 0.50588 0.49804 1.00000
v -16.24387 21.54035 2.55575 0.49412 0.50588 0.49804 1.00000
v -16.02843 21.34517 2.70924 0.49412 0.50588 0.49804 1.00000
v -18.99895 20.94251 4.70100 0.49412 0.50588 0.49804 1.00000
v -18.98849 21.16504 4.80514 0.49412 0.50588 0.49804 1.00000
v -19.06704 21.11489 4.59560 0.49412 0.50588 0.49804 1.00000
v -18.99895 20.94251 4.70100 0.49412 0.50588 0.49804 1.00000
v -22.39725 21.13957 5.25728 0.49412 0.50588 0.49804 1.00000
v -22.39725 21.13957 5.25728 0.49412 0.50588 0.49804 1.00000
v -9.05628 28.00662 6.83329 0.49412 0.50588 0.49804 1.00000
v -9.06860 28.38997 6.65584 0.49412 0.50588 0.49804 1.00000
v -9.31489 28.07434 6.47864 0.49412 0.50588 0.49804 1.00000
v -9.05628 28.00662 6.83329 0.49412 0.50588 0.49804 1.00000
v -11.65086 28.90187 9.62531 0.49412 0.50588 0.49804 1.00000
v -11.67425 29.16048 9.55060 0.49412 0.50588 0.49804 1.00000
v -11.85478 29.03793 9.46468 0.49412 0.50588 0.49804 1.00000
v -11.65086 28.90187 9.62531 0.49412 0.50588 0.49804 1.00000
v -12.95954 29.67743 12.45714 0.49412 0.50588 0.49804 1.00000
v -12.91180 29.90118 12.42240 0.49412 0.50588 0.49804 1.00000
v -13.12307 29.83179 12.33923 0.49412 0.50588 0.49804 1.00000
v -12.95954 29.67743 12.45714 0.49412 0.50588 0.49804 1.00000
v -15.22077 30.40523 14.96704 0.49412 0.50588 0.49804 1.00000
v -15.22077 30.40523 14.96704 0.49412 0.50588 0.49804 1.00000
v 15.95566 42.72724 4.99440 0.49412 0.50588 0.49804 1.00000
v 15.95566 42.72724 4.99440 0.49412 0.50588 0.49804 1.00000
v 15.95566 42.72724 4.99440 0.49412 0.50588 0.49804 1.00000
v -0.97093 41.16801 -11.43829 0.49412 0.50588 0.49804 1.00000
v -0.95181 41.30997 -11.31221 0.49412 0.50588 0.49804 1.00000
v -0.75193 41.23944 -11.42537 0.49412 0.50588 0.49804 1.00000
v -0.97093 41.16801 -11.43829 0.49412 0.50588 0.49804 1.00000
v -0.17542 45.05666 -16.01981 0.49412 0.50588 0.49804 1.00000
v -0.17542 45.05666 -16.01981 0.49412 0.50588 0.49804 1.00000
v -11.65994 48.42990 -11.44996 0.49412 0.50588 0.49804 1.00000
v -11.65994 48.42990 -11.44996 0.49412 0.50588 0.49804 1.00000
v -11.65994 48.42990 -11.44996 0.49412 0.50588 0.49804 1.00000
v -15.27280 49.86437 3.32648 0.49412 0.50588 0.49804 1.00000
v -15.27280 49.86437 3.32648 0.49412 0.50588 0.49804 1.00000
v -15.27280 49.86437 3.32648 0.49412 0.50588 0.49804 1.00000
v -4.45113 41.87879 6.98135 0.49412 0.50588 0.49804 1.00000
v -4.56656 41.98565 6.85342 0.49412 0.50588 0.49804 1.00000
v -4.68216 41.86669 7.06237 0.49412 0.50588 0.49804 1.00000
v -4.45113 41.87879 6.98135 0.49412 0.50588 0.49804 1.00000
v -5.41799 49.63771 12.28187 0.49412 0.50588 0.49804 1.00000
v -5.41799 49.63771 12.28187 0.49412 0.50588 0.49804 1.00000
v 5.62172 52.68050 11.91136 0.49412 0.50588 0.49804 1.00000
v 5.62172 52.68050 11.91136 0.49412 0.50588 0.49804 1.00000
v 5.62172 52.68050 11.91136 0.49412 0.50588 0.49804 1.00000
v -9.16036 60.14238 -4.02436 0.49412 0.50588 0.49804 1.00000
v -9.16036 60.14238 -4.02436 0.49412 0.50588 0.49804 1.00000
v -9.16036 60.14238 -4.02436 0.49412 0.50588 0.49804 1.00000
v -3.95321 62.15909 9.21227 0.49412 0.50588 0.49804 1.00000
v -3.95321 62.15909 9.21227 0.49412 0.50588 0.49804 1.00000
v -3.95321 62.15909 9.21227 0.49412 0.50588 0.49804 1.00000
v 1.92082 54.19844 -1.08893 0.49412 0.50588 0.49804 1.00000
v 1.96868 54.18728 -0.87939 0.49412 0.50588 0.49804 1.00000
v 2.06811 54.13265 -1.04182 0.49412 0.50588 0.49804 1.00000
v 1.92082 54.19844 -1.08893 0.49412 0.50588 0.49804 1.00000
v 4.09958 61.72486 -2.24062 0.49412 0.50588 0.49804 1.00000
v 4.09958 61.72486 -2.24062 0.49412 0.50588 0.49804 1.00000
v -0.01753 0.00351 3.97208 0.49412 0.50588 0.49804 1.00000
v -0.38185 5.44375 2.65826 0.49412 0.50588 0.49804 1.00000
v 1.84901 5.89554 0.56690 0.49412 0.50588 0.49804 1.00000
v 5.27721 0.00001 0.02330 0.49412 0.50588 0.49804 1.00000
v -0.41127 5.86501 -1.54132 0.49412 0.50588 0.49804 1.00000
v 0.01752 -0.00350 -3.96798 0.49412 0.50588 0.49804 1.00000
v -2.33988 5.44569 0.55113 0.49412 0.50588 0.49804 1.00000
v -2.65876 -0.00001 -0.01174 0.49412 0.50588 0.49804 1.00000
v -0.38185 5.44375 2.65826 0.49412 0.50588 0.49804 1.00000
v -0.01753 0.00351 3.97208 0.49412 0.50588 0.49804 1.00000
v -0.75944 13.38893 2.24193 0.49412 0.50588 0.49804 1.00000
v 0.68042 13.35631 0.82856 0.49412 0.50588 0.49804 1.00000
v -0.77554 13.35939 -0.55543 0.49412 0.50588 0.49804 1.00000
v -2.13541 13.39089 0.84439 0.49412 0.50588 0.49804 1.00000
v -0.75944 13.38893 2.24193 0.49412 0.50588 0.49804 1.00000
v -0.84444 21.23960 1.02953 0.49412 0.50588 0.49804 1.00000
v 0.11352 21.21148 0.04907 0.49412 0.50588 0.49804 1.00000
v -0.86173 21.03965 -0.89305 0.49412 0.50588 0.49804 1.00000
v -1.79488 21.06900 0.08105 0.49412 0.50588 0.49804 1.00000
v -0.84444 21.23960 1.02953 0.49412 0.50588 0.49804 1.00000
v -1.69495 30.27482 0.48568 0.49412 0.50588 0.49804 1.00000
v -1.00273 30.35931 -0.24060 0.49412 0.50588 0.49804 1.00000
v -1.73320 30.34299 -0.94083 0.49412 0.50588 0.49804 1.00000
v -2.42022 30.25851 -0.20741 0.49412 0.50588 0.49804 1.00000
v -1.69495 30.27482 0.48568 0.49412 0.50588 0.49804 1.00000
v -1.62729 39.97511 1.41015 0.49412 0.50588 0.49804 1.00000
v -1.09848 40.03046 0.84915 0.49412 0.50588 0.49804 1.00000
v -1.66025 40.10558 0.31612 0.49412 0.50588 0.49804 1.00000
v -2.18943 40.04938 0.88428 0.49412 0.50588 0.49804 1.00000
v -1.62729 39.97511 1.41015 0.49412 0.50588 0.49804 1.00000
v -2.48175 50.73735 1.77372 0.49412 0.50588 0.49804 1.00000
v -1.99717 50.76374 1.26303 0.49412 0.50588 0.49804 1.00000
v -2.49767 50.66733 0.78533 0.49412 0.50588 0.49804 1.00000
v -2.98300 50.64028 1.28765 0.49412 0.50588 0.49804 1.00000
v -2.48175 50.73735 1.77372 0.49412 0.50588 0.49804 1.00000
v -2.49956 50.82532 1.28006 0.49412 0.50588 0.49804 1.00000
v -2.49956 50.82532 1.28006 0.49412 0.50588 0.49804 1.00000
v -2.49956 50.82532 1.28006 0.49412 0.50588 0.49804 1.00000
v -2.49956 50.82532 1.28006 0.49412 0.50588 0.49804 1.00000
v 5.27721 0.00001 0.02330 0.49412 0.50588 0.49804 0.00000
v 0.01391 -0.98972 -0.01887 0.49412 0.50588 0.49804 0.00000
v -0.01753 0.00351 3.97208 0.49412 0.50588 0.49804 0.00000
v 0.01752 -0.00350 -3.96798 0.49412 0.50588 0.49804 0.00000
v -2.65876 -0.00001 -0.01174 0.49412 0.50588 0.49804 0.00000
v -0.01750 0.00351 3.97208 0.49412 0.50588 0.49804 0.00000
# Normals
vn 0.57279 0.02135 -0.81943
vn 0.57536 0.01561 -0.81474
vn 0.22372 0.08139 0.96181
vn 0.22617 0.07012 0.97156
vn -0.76665 -0.05033 0.64009
vn -0.76375 -0.05758 0.63906
vn 0.57536 0.01561 -0.81474
vn 0.57279 0.02135 -0.81943
vn 0.60659 -0.08468 -0.74159
vn 0.19590 0.25163 0.80510
vn -0.73471 -0.14481 0.63127
vn 0.60659 -0.08468 -0.74159
vn 0.65507 -0.65021 -0.38485
vn 0.17266 0.98481 0.01819
vn -0.70448 -0.31214 0.63740
vn 0.65507 -0.65021 -0.38485
vn 0.40078 -0.87915 -0.25782
vn 0.43814 0.88974 -0.12800
vn -0.80245 0.27465 0.52975
vn 0.40078 -0.87915 -0.25782
vn -0.53506 -0.81617 -0.21814
vn 0.98025 0.04199 -0.19327
vn -0.08799 0.86843 0.48793
vn -0.53506 -0.81617 -0.21814
vn -0.92038 -0.38680 -0.05739
vn 0.88228 -0.45884 0.10512
vn 0.25499 0.96623 0.03728
vn -0.92038 -0.38680 -0.05739
vn 0.63617 -0.64690 0.42048
vn -0.63912 0.66720 -0.38258
vn -0.34441 -0.08086 -0.93533
vn -0.34175 -0.08210 -0.93501
vn 0.98090 0.11346 0.12875
vn 0.98548 0.11005 0.12932
vn 0.09243 0.05710 0.99408
vn 0.09318 0.05468 0.99323
vn -0.34175 -0.08210 -0.93501
vn -0.34441 -0.08086 -0.93533
vn -0.30178 -0.10348 -0.92879
vn 0.91213 0.16447 0.11804
vn 0.10238 0.02161 0.98333
vn -0.30178 -0.10348 -0.92879
vn -0.12562 -0.21206 -0.89132
vn 0.61233 0.38392 0.05585
vn 0.12689 -0.09627 0.95838
vn -0.12562 -0.21206 -0.89132
vn 0.35656 -0.59229 -0.72253
vn -0.20646 0.95402 -0.21728
vn 0.10961 -0.26890 0.95691
vn 0.35656 -0.59229 -0.72253
vn 0.33688 -0.78773 -0.51575
vn -0.10530 0.91376 -0.39236
vn -0.18807 0.09443 0.97761
vn 0.33688 -0.78773 -0.51575
vn -0.08506 -0.98287 0.16352
vn 0.28448 0.31526 -0.90536
vn -0.10388 0.81342 0.57232
vn -0.08506 -0.98287 0.16352
vn -0.12086 -0.77620 0.61879
vn 0.62343 0.04973 -0.78029
vn -0.46005 0.88566 0.06291
vn -0.12086 -0.77620 0.61879
vn 0.89247 0.00416 -0.45109
vn -0.87657 0.01728 0.48096
vn -0.83249 -0.11359 -0.54227
vn -0.82589 -0.11805 -0.54580
vn 0.70990 0.05468 -0.68311
vn 0.72063 0.04301 -0.69198
vn 0.80256 0.11251 0.58586
vn 0.80108 0.10461 0.58487
vn -0.82589 -0.11805 -0.54580
vn -0.83249 -0.11359 -0.54227
vn -0.72307 -0.19390 -0.59464
vn 0.54656 0.22946 -0.55233
vn 0.77932 -0.00024 0.58203
vn -0.72307 -0.19390 -0.59464
vn -0.23756 -0.59230 -0.76990
vn -0.19606 0.98054 -0.00984
vn 0.67412 -0.33058 0.66052
vn -0.23756 -0.59230 -0.76990
vn -0.23765 -0.79183 -0.56261
vn -0.21559 0.97066 -0.10654
vn 0.66272 -0.03307 0.74814
vn -0.23765 -0.79183 -0.56261
vn 0.13604 -0.98862 -0.06416
vn -0.48171 0.50195 -0.71833
vn 0.30519 0.73495 0.60556
vn 0.13604 -0.98862 -0.06416
vn 0.54451 -0.81107 0.21373
vn -0.40034 0.21619 -0.89050
vn -0.18691 0.79239 0.58067
vn 0.54451 -0.81107 0.21373
vn -0.13838 0.11892 -0.98321
vn 0.19136 -0.12884 0.97303
vn -0.91963 -0.07861 0.38484
vn -0.91940 -0.08002 0.38235
vn -0.20833 -0.06436 -0.97122
vn -0.20889 -0.06849 -0.97554
vn 0.94640 0.08492 -0.31163
vn 0.94570 0.08249 -0.31177
vn -0.91940 -0.08002 0.38235
vn -0.91963 -0.07861 0.38484
vn -0.91521 -0.10282 0.34521
vn -0.19981 -0.00236 -0.90650
vn 0.93717 0.04788 -0.31234
vn -0.91521 -0.10282 0.34521
vn -0.89216 -0.20930 0.18260
vn -0.16343 0.26591 -0.62343
vn 0.91234 -0.08762 -0.30501
vn -0.89216 -0.20930 0.18260
vn -0.80211 -0.53757 -0.26008
vn -0.07634 0.98403 0.16081
vn 0.89479 -0.38131 -0.23228
vn -0.80211 -0.53757 -0.26008
vn -0.70039 -0.66951 -0.24740
vn -0.09840 0.98871 0.11302
vn 0.97348 -0.22850 -0.01151
vn -0.70039 -0.66951 -0.24740
vn -0.38332 -0.92358 -0.00847
vn -0.66133 0.74830 0.05188
vn 0.91487 0.38781 -0.11229
vn -0.38332 -0.92358 -0.00847
vn 0.03108 -0.94979 -0.31134
vn -0.74894 0.65919 -0.06752
vn 0.69932 0.59006 0.40346
vn 0.03108 -0.94979 -0.31134
vn 0.44513 -0.88032 -0.16400
vn -0.79956 0.31255 -0.51285
vn 0.28708 0.72819 0.62235
vn 0.44513 -0.88032 -0.16400
vn -0.70003 0.21195 -0.68194
vn 0.73314 -0.22379 0.64221
vn -0.65803 -0.03353 0.75224
vn -0.65865 -0.03510 0.75079
vn -0.62703 -0.09874 -0.76701
vn -0.62951 -0.10305 -0.77013
vn 0.42215 0.00132 -0.90652
vn 0.42204 -0.00098 -0.90575
vn -0.65865 -0.03510 0.75079
vn -0.65803 -0.03353 0.75224
vn -0.66705 -0.06043 0.72869
vn -0.58994 -0.03414 -0.72015
vn 0.42280 -0.03339 -0.89432
vn -0.66705 -0.06043 0.72869
vn -0.69986 -0.17946 0.62866
vn -0.42937 0.24568 -0.51311
vn 0.44215 -0.15779 -0.84629
vn -0.69986 -0.17946 0.62866
vn -0.76372 -0.54934 0.33906
vn 0.00166 0.99702 0.07708
vn 0.56823 -0.40980 -0.71357
vn -0.76372 -0.54934 0.33906
vn -0.72765 -0.65943 0.18889
vn -0.02410 0.99263 0.11873
vn 0.78359 -0.27679 -0.55621
vn -0.72765 -0.65943 0.18889
vn -0.47714 -0.87481 0.08386
vn -0.58534 0.74906 0.31030
vn 0.85628 0.38309 -0.34645
vn -0.47714 -0.87481 0.08386
vn -0.20375 -0.96985 -0.13370
vn -0.68528 0.70397 0.18660
vn 0.85737 0.51116 -0.06017
vn -0.20375 -0.96985 -0.13370
vn 0.17424 -0.95905 -0.22332
vn -0.89983 0.42223 -0.10969
vn 0.68905 0.66446 0.28931
vn 0.17424 -0.95905 -0.22332
vn -0.90413 0.33445 -0.26586
vn 0.91349 -0.33795 0.22657
vn 0.51405 0.09037 0.85299
vn 0.51087 0.08932 0.85332
vn -0.95323 -0.03427 -0.28374
vn -0.95795 -0.03817 -0.28437
vn -0.26289 -0.09846 -0.95979
vn -0.26373 -0.10046 -0.95850
vn 0.51087 0.08932 0.85332
vn 0.51405 0.09037 0.85299
vn 0.46378 0.07267 0.85826
vn -0.88258 0.02423 -0.27459
vn -0.27504 -0.13006 -0.94059
vn 0.46378 0.07267 0.85826
vn 0.26108 -0.00112 0.87974
vn -0.57329 0.27701 -0.23424
vn -0.31638 -0.25393 -0.87199
vn 0.26108 -0.00112 0.87974
vn -0.27381 -0.21200 0.93813
vn 0.28796 0.95074 -0.11478
vn -0.38609 -0.56847 -0.72648
vn -0.27381 -0.21200 0.93813
vn -0.30462 -0.24719 0.91984
vn 0.27428 0.95671 -0.09740
vn -0.09149 -0.56631 -0.81910
vn -0.30462 -0.24719 0.91984
vn -0.07309 -0.54599 0.83460
vn 0.08820 0.96907 0.23049
vn -0.08516 -0.19603 -0.97689
vn -0.07309 -0.54599 0.83460
vn -0.00530 -0.75828 0.65191
vn 0.00191 0.97063 0.24058
vn -0.06326 -0.11785 -0.99101
vn -0.00530 -0.75828 0.65191
vn -0.17257 -0.89749 0.40588
vn 0.04961 0.88354 0.46571
vn 0.11293 0.13979 -0.98372
vn -0.17257 -0.89749 0.40588
vn -0.28459 -0.95368 0.09751
vn -0.18096 0.76616 0.61665
vn 0.45467 0.28618 -0.84343
vn -0.28459 -0.95368 0.09751
vn -0.37117 0.71479 0.59271
vn 0.38161 -0.64029 -0.66663
vn 0.97812 0.03054 0.20579
vn 0.97655 0.02972 0.20810
vn -0.82292 0.05084 0.55695
vn -0.82664 0.04749 0.56072
vn -0.89776 -0.05282 -0.43731
vn -0.89758 -0.05465 -0.43546
vn 0.97655 0.02972 0.20810
vn 0.97812 0.03054 0.20579
vn 0.95292 0.01617 0.24253
vn -0.76802 0.10123 0.50032
vn -0.89522 -0.08171 -0.40979
vn 0.95292 0.01617 0.24253
vn 0.84819 -0.04686 0.39224
vn -0.53094 0.31854 0.25251
vn -0.88715 -0.19479 -0.31149
vn 0.84819 -0.04686 0.39224
vn 0.55640 -0.24264 0.79470
vn 0.11411 0.89408 -0.43312
vn -0.86958 -0.48187 -0.10788
vn 0.55640 -0.24264 0.79470
vn 0.45203 -0.25336 0.85526
vn 0.18914 0.83491 -0.51687
vn -0.81951 -0.49562 -0.28769
vn 0.45203 -0.25336 0.85526
vn 0.13495 -0.24779 0.95937
vn 0.45019 0.85988 -0.24068
vn -0.55893 -0.37699 -0.73856
vn 0.13495 -0.24779 0.95937
vn 0.02442 -0.37220 0.92783
vn 0.26012 0.94320 -0.20668
vn -0.35817 -0.45900 -0.81304
vn 0.02442 -0.37220 0.92783
vn 0.23088 -0.59402 0.77061
vn 0.23160 0.97221 -0.03405
vn -0.50377 -0.23359 -0.83166
vn 0.23088 -0.59402 0.77061
vn 0.08281 -0.72181 0.68712
vn 0.31573 0.93500 0.16153
vn -0.45182 -0.10769 -0.88559
vn 0.08281 -0.72181 0.68712
vn 0.19367 0.93165 0.30744
vn -0.24100 -0.92375 -0.29767
vn -0.34576 0.11223 -0.93159
vn -0.29329 0.09304 -0.92633
vn 0.67969 -0.02275 0.61211
vn 0.75323 -0.08466 0.65228
vn -0.09463 -0.11365 0.98900
vn -0.08299 -0.14659 0.97483
vn -0.29329 0.09304 -0.92633
vn -0.34576 0.11223 -0.93159
vn 0.50598 -0.24798 -0.82613
vn -0.41385 0.91015 -0.01899
vn 0.03015 -0.58016 0.81395
vn 0.50598 -0.24798 -0.82613
vn 0.53325 -0.36225 -0.76447
vn -0.33944 0.93155 -0.13035
vn -0.09565 -0.53435 0.83983
vn 0.53325 -0.36225 -0.76447
vn -0.23777 0.95765 -0.16243
vn 0.41367 -0.90964 -0.03776
vn -0.99916 0.00719 0.04042
vn -0.99709 0.00391 0.03385
vn 0.68021 0.08486 -0.70548
vn 0.68859 0.07551 -0.72121
vn 0.95442 -0.04558 0.29496
vn 0.95296 -0.05104 0.28820
vn -0.99709 0.00391 0.03385
vn -0.99916 0.00719 0.04042
vn -0.96296 -0.05080 -0.06677
vn 0.55174 0.22594 -0.47068
vn 0.93561 -0.12803 0.19365
vn -0.96296 -0.05080 -0.06677
vn -0.78554 -0.33302 -0.52156
vn -0.03298 0.83755 0.54537
vn 0.89583 -0.41585 -0.15669
vn -0.78554 -0.33302 -0.52156
vn -0.67596 -0.44733 -0.58564
vn -0.34049 0.79407 0.50350
vn 0.98124 -0.17304 0.08505
vn -0.67596 -0.44733 -0.58564
vn -0.37452 -0.46156 -0.80417
vn -0.38755 0.87206 0.29887
vn 0.78658 -0.35338 0.50637
vn -0.37452 -0.46156 -0.80417
vn -0.43970 0.87335 0.20956
vn 0.38389 -0.84970 -0.36143
vn -0.61647 -0.08353 0.78294
vn -0.63306 -0.09964 0.75433
vn -0.42906 0.15286 -0.79063
vn -0.48124 0.10670 -0.87007
vn 0.76289 0.06557 -0.64319
vn 0.74194 0.03484 -0.65282
vn -0.63306 -0.09964 0.75433
vn -0.61647 -0.08353 0.78294
vn -0.87599 -0.38721 0.28758
vn 0.33987 0.84648 0.40983
vn 0.49029 -0.37436 -0.78707
vn -0.87599 -0.38721 0.28758
vn -0.87312 -0.45926 0.16353
vn 0.28107 0.86249 0.42085
vn 0.60741 -0.37870 -0.69831
vn -0.87312 -0.45926 0.16353
vn 0.20782 0.91026 0.35809
vn -0.12042 -0.90239 -0.41376
vn 0.34383 -0.11229 0.93229
vn 0.30454 -0.12367 0.93104
vn -0.89771 0.05217 0.09011
vn -0.99557 0.00093 0.09401
vn -0.10879 0.11587 -0.98729
vn -0.12547 0.08110 -0.97654
vn 0.30454 -0.12367 0.93104
vn 0.34383 -0.11229 0.93229
vn -0.25883 -0.26907 0.92769
vn 0.56860 0.82260 -0.00501
vn -0.40209 -0.48609 -0.77591
vn -0.25883 -0.26907 0.92769
vn -0.20169 -0.20706 0.95731
vn 0.58965 0.79709 -0.13024
vn -0.45359 -0.54462 -0.70544
vn -0.20169 -0.20706 0.95731
vn 0.45761 0.88420 -0.09368
vn -0.53502 -0.77415 0.33829
vn 0.98053 0.01109 -0.19608
vn 0.96705 -0.00184 -0.14547
vn -0.60586 -0.02068 0.67016
vn -0.66031 -0.07882 0.74685
vn -0.96509 0.04150 -0.25863
vn -0.95691 0.00450 -0.24039
vn 0.96705 -0.00184 -0.14547
vn 0.98053 0.01109 -0.19608
vn 0.80626 -0.12867 0.57739
vn 0.13597 0.84743 -0.51320
vn -0.77539 -0.62221 0.10781
vn 0.80626 -0.12867 0.57739
vn 0.82414 0.00167 0.56638
vn -0.03026 0.82450 -0.56505
vn -0.65940 -0.74215 0.12005
vn 0.82414 0.00167 0.56638
vn -0.09134 0.82591 -0.55636
vn 0.30222 -0.68811 0.65967
vn 0.82024 0.05631 -0.56924
vn 0.82822 0.04147 -0.55004
vn 0.13924 -0.05624 0.89315
vn 0.17562 -0.11555 0.97765
vn -0.80621 -0.05874 0.58870
vn -0.78576 -0.08943 0.59468
vn 0.82822 0.04147 -0.55004
vn 0.82024 0.05631 -0.56924
vn 0.94549 -0.15364 -0.28712
vn -0.44689 0.82545 -0.34485
vn -0.41086 -0.60501 0.68203
vn 0.94549 -0.15364 -0.28712
vn 0.93015 -0.12108 -0.34664
vn -0.60395 0.74213 -0.29065
vn -0.30018 -0.59851 0.74275
vn 0.93015 -0.12108 -0.34664
vn -0.59680 0.77010 -0.22534
vn 0.51523 -0.80484 0.29456
vn -0.47331 -0.07121 0.87801
vn -0.49308 -0.07613 0.86033
vn -0.63771 0.01489 -0.62499
vn -0.71988 -0.03055 -0.69343
vn 0.42973 0.06861 -0.90034
vn 0.41261 0.04017 -0.90089
vn -0.49308 -0.07613 0.86033
vn -0.47331 -0.07121 0.87801
vn -0.76373 -0.11437 0.63533
vn 0.64730 0.69225 0.31905
vn -0.00621 -0.49133 -0.87095
vn -0.76373 -0.11437 0.63533
vn -0.64549 -0.11526 0.75502
vn 0.80912 0.57905 0.10013
vn -0.25866 -0.43640 -0.86177
vn -0.64549 -0.11526 0.75502
vn 0.80447 0.59399 -0.00282
vn -0.79417 -0.59846 -0.10556
vn 0.99378 0.08176 -0.07567
vn 0.98962 0.06745 -0.04943
vn -0.72839 -0.03564 0.55247
vn -0.76749 -0.08526 0.63537
vn -0.95983 -0.06571 -0.27280
vn -0.95276 -0.08813 -0.23570
vn 0.98962 0.06745 -0.04943
vn 0.99378 0.08176 -0.07567
vn 0.92398 -0.15734 0.34857
vn -0.13482 0.71145 -0.68968
vn -0.84958 -0.42381 0.31402
vn 0.92398 -0.15734 0.34857
vn 0.92018 -0.16728 0.35395
vn -0.12920 0.71175 -0.69045
vn -0.85024 -0.42409 0.31183
vn 0.92018 -0.16728 0.35395
vn -0.48819 -0.00529 -0.87272
vn -0.46834 -0.01645 -0.87868
vn 0.89703 0.11409 0.10851
vn 0.99355 0.07561 0.08456
vn 0.31108 -0.01174 0.95031
vn 0.34081 -0.03596 0.92033
vn -0.46834 -0.01645 -0.87868
vn -0.48819 -0.00529 -0.87272
vn -0.24475 -0.13004 -0.96083
vn -0.49756 0.68133 0.53687
vn 0.81085 -0.50650 0.29321
vn -0.24475 -0.13004 -0.96083
vn -0.42098 -0.03784 -0.90628
vn -0.35442 0.59683 0.71985
vn 0.82398 -0.56462 0.04759
vn -0.42098 -0.03784 -0.90628
vn -0.29580 0.49403 0.81758
vn 0.41083 -0.51982 -0.74900
vn -0.65726 0.17230 -0.73370
vn 0.60631 -0.70956 0.35906
vn -0.01796 0.88685 0.46172
vn -0.65726 0.17230 -0.73370
vn 0.07639 -0.97702 0.19899
vn -0.09297 0.98193 -0.16483
vn -0.71230 -0.56911 0.41078
vn 0.81340 0.03022 -0.58092
vn -0.29242 0.85595 0.42643
vn -0.71230 -0.56911 0.41078
vn 0.83229 -0.46227 -0.30596
vn -0.81051 0.48282 0.33161
vn 0.07601 -0.79533 0.60140
vn -0.18516 0.21595 -0.95869
vn 0.18373 0.72656 0.66208
vn 0.07601 -0.79533 0.60140
vn 0.02464 -0.25415 -0.96685
vn 0.01938 0.22514 0.97413
vn 0.11123 -0.97688 0.18260
vn -0.62704 0.74769 -0.21857
vn 0.88097 0.47271 -0.02106
vn 0.11123 -0.97688 0.18260
vn 0.54656 -0.83004 0.11092
vn -0.91713 0.01117 -0.39843
vn 0.26925 0.94531 0.18411
vn 0.54656 -0.83004 0.11092
vn -0.81290 -0.15059 -0.56260
vn 0.84364 0.12515 0.52212
vn 0.05719 -0.98809 0.14289
vn -0.61643 0.78493 0.06247
vn 0.88048 0.35310 -0.31633
vn 0.05719 -0.98809 0.14289
vn 0.40614 -0.91308 -0.03658
vn -0.98054 0.16618 -0.10453
vn 0.49974 0.86278 0.07666
vn 0.40614 -0.91308 -0.03658
vn -0.95912 0.04158 -0.27992
vn 0.96908 -0.03765 0.24386
vn 0.40707 -0.74503 0.52843
vn -0.03447 0.99581 -0.08475
vn -0.49068 -0.42710 -0.75949
vn 0.40707 -0.74503 0.52843
vn 0.31670 -0.90656 0.27900
vn 0.21414 0.87937 0.42526
vn -0.64274 0.14299 -0.75262
vn 0.31670 -0.90656 0.27900
vn 0.05078 -0.99016 0.13042
vn 0.21412 0.71887 0.66134
vn -0.39118 0.35735 -0.84811
vn 0.05078 -0.99016 0.13042
vn 0.09781 0.62714 0.77274
vn -0.16530 -0.56117 -0.81103
vn 0.35303 -0.58509 0.73009
vn 0.15658 0.91175 -0.37974
vn -0.74069 -0.48124 -0.46881
vn 0.35303 -0.58509 0.73009
vn 0.42740 -0.78948 0.44051
vn 0.38697 0.92180 0.02332
vn -0.86623 0.03690 -0.49828
vn 0.42740 -0.78948 0.44051
vn 0.22862 -0.87139 0.43406
vn 0.55204 0.82416 0.12650
vn -0.82400 0.16474 -0.54211
vn 0.22862 -0.87139 0.43406
vn 0.51549 0.79907 0.30946
vn -0.55189 -0.78959 -0.26826
vn -0.01492 0.40219 -0.91544
vn -0.32201 0.54722 0.77257
vn 0.37983 -0.92405 -0.04307
vn -0.67347 -0.60939 -0.41843
vn -0.02990 0.85790 0.51294
vn 0.84134 -0.45786 -0.28725
vn -0.67347 -0.60939 -0.41843
vn -0.42513 0.74107 0.51969
vn 0.28122 -0.75517 -0.59214
vn -0.57304 0.31405 0.75696
vn 0.83020 0.42911 -0.35587
vn -0.18683 -0.80965 -0.55638
vn 0.72496 0.29664 0.62164
vn 0.04679 0.41902 -0.90677
vn -0.66569 -0.64488 0.37548
vn 0.90149 -0.04478 0.43049
vn -0.29695 0.60660 -0.73746
vn -0.47457 -0.65249 0.59079
vn 0.90149 -0.04478 0.43049
vn -0.07918 0.57091 -0.81719
vn -0.02753 -0.78218 0.62244
vn 0.13252 0.38206 -0.91459
vn -0.79993 0.11124 0.58969
vn 0.58368 -0.55727 0.59056
vn 0.34793 0.25910 0.90101
vn 0.51305 0.04243 -0.85731
vn -0.91929 -0.32576 -0.22089
vn 0.49418 0.50110 -0.71042
vn -0.69637 0.31799 -0.64339
vn 0.01407 -0.51146 0.85919
vn -0.59865 0.17135 -0.78247
vn -0.01174 0.31276 0.94976
vn 0.80278 -0.47545 -0.35984
vn -0.59865 0.17135 -0.78247
vn -0.12595 0.21067 0.96941
vn 0.21264 -0.20766 -0.95481
vn -0.16153 0.23439 0.95863
vn -0.05804 0.09710 0.99358
vn 0.91526 0.32045 0.24415
vn 0.82262 0.48347 -0.29924
vn 0.06859 0.26484 -0.96185
vn -0.43665 0.29177 -0.85100
vn -0.98741 0.08553 -0.13304
vn -0.96035 0.06247 0.27169
vn -0.05804 0.09710 0.99358
vn -0.16153 0.23439 0.95863
vn -0.00616 0.12013 0.99274
vn 0.99248 0.12232 -0.00381
vn -0.02023 0.01481 -0.99969
vn -0.99930 0.03712 0.00373
vn -0.00616 0.12013 0.99274
vn 0.00667 0.09107 0.99582
vn 0.99621 0.08529 -0.01711
vn -0.02193 -0.01945 -0.99957
vn -0.99996 0.00661 0.00652
vn 0.00667 0.09107 0.99582
vn 0.02611 -0.04273 0.99875
vn 0.99617 0.08449 -0.02244
vn -0.02824 0.08301 -0.99615
vn -0.99898 -0.03773 0.02462
vn 0.02611 -0.04273 0.99875
vn 0.02896 -0.05277 0.99819
vn 0.99905 0.03643 -0.02397
vn -0.02809 0.07012 -0.99714
vn -0.99940 -0.01209 0.03238
vn 0.02896 -0.05277 0.99819
vn -0.06478 0.72429 0.68645
vn 0.81442 0.57775 -0.05398
vn -0.10048 0.68308 -0.72340
vn -0.91009 0.41427 -0.01090
vn -0.06478 0.72429 0.68645
vn -0.11528 0.97720 0.17828
vn 0.10589 0.94737 -0.30213
vn -0.34639 0.89325 -0.28657
vn -0.11528 0.97720 0.17828
vn 0.18480 -0.98278 0.00045
vn -0.08470 -0.99641 -0.00069
vn 0.17760 -0.95464 0.23898
vn -0.08147 -0.96696 -0.24155
vn -0.34727 -0.93776 -0.00178
vn -0.33785 -0.91396 0.22480
# Uv
vt 0.00000 5.46105
vt 0.00000 6.06976
vt 0.33333 6.08993
vt 0.33333 5.46105
vt 0.66667 5.46105
vt 0.66667 6.02327
vt 1.00000 6.06976
vt 1.00000 5.46105
vt 0.00000 6.68210
vt 0.33333 6.70669
vt 0.66667 6.64372
vt 1.00000 6.68210
vt 0.00000 7.24627
vt 0.33333 7.26319
vt 0.66667 7.23086
vt 1.00000 7.24627
vt 0.00000 7.84971
vt 0.33333 7.84971
vt 0.66667 7.84971
vt 1.00000 7.84971
vt 0.00000 10.53495
vt 0.33333 10.53495
vt 0.66667 10.53495
vt 1.00000 10.53495
vt 0.00000 12.65122
vt 0.33333 12.65122
vt 0.66667 12.65122
vt 1.00000 12.65122
vt 0.33333 14.77642
vt 1.00000 14.77642
vt 0.00000 5.08084
vt 0.00000 5.62738
vt 0.33333 5.63547
vt 0.33333 5.08084
vt 0.66667 5.08084
vt 0.66667 5.54509
vt 1.00000 5.62738
vt 1.00000 5.08084
vt 0.00000 6.13105
vt 0.33333 6.19447
vt 0.66667 6.09443
vt 1.00000 6.13105
vt 0.00000 6.52896
vt 0.33333 6.62040
vt 0.66667 6.51559
vt 1.00000 6.52896
vt 0.00000 6.98878
vt 0.33333 7.06314
vt 0.66667 7.00766
vt 1.00000 6.98878
vt 0.00000 7.45007
vt 0.33333 7.45007
vt 0.66667 7.45007
vt 1.00000 7.45007
vt 0.00000 10.17699
vt 0.33333 10.17699
vt 0.66667 10.17699
vt 1.00000 10.17699
vt 0.00000 12.38638
vt 0.33333 12.38638
vt 0.66667 12.38638
vt 1.00000 12.38638
vt 0.33333 14.67299
vt 1.00000 14.67299
vt 0.00000 5.50830
vt 0.00000 6.04934
vt 0.33333 6.10666
vt 0.33333 5.50830
vt 0.66667 5.50830
vt 0.66667 6.04437
vt 1.00000 6.04934
vt 1.00000 5.50830
vt 0.00000 6.59110
vt 0.33333 6.69488
vt 0.66667 6.62919
vt 1.00000 6.59110
vt 0.00000 7.12242
vt 0.33333 7.21567
vt 0.66667 7.17389
vt 1.00000 7.12242
vt 0.00000 7.73419
vt 0.33333 7.73419
vt 0.66667 7.73419
vt 1.00000 7.73419
vt 0.00000 10.28792
vt 0.33333 10.28792
vt 0.66667 10.28792
vt 1.00000 10.28792
vt 0.00000 12.54347
vt 0.33333 12.54347
vt 0.66667 12.54347
vt 1.00000 12.54347
vt 0.33333 14.84631
vt 1.00000 14.84631
vt 0.00000 4.70348
vt 0.00000 5.14345
vt 0.33333 5.13847
vt 0.33333 4.70348
vt 0.66667 4.70348
vt 0.66667 5.07074
vt 1.00000 5.14345
vt 1.00000 4.70348
vt 0.00000 5.51465
vt 0.33333 5.55935
vt 0.66667 5.47891
vt 1.00000 5.51465
vt 0.00000 5.82793
vt 0.33333 5.88515
vt 0.66667 5.79816
vt 1.00000 5.82793
vt 0.00000 6.14615
vt 0.33333 6.19982
vt 0.66667 6.15015
vt 1.00000 6.14615
vt 0.00000 6.46111
vt 0.33333 6.46111
vt 0.66667 6.46111
vt 1.00000 6.46111
vt 0.00000 8.47702
vt 0.33333 8.47702
vt 0.66667 8.47702
vt 1.00000 8.47702
vt 0.00000 10.58487
vt 0.33333 10.58487
vt 0.66667 10.58487
vt 1.00000 10.58487
vt 0.00000 12.67806
vt 0.33333 12.67806
vt 0.66667 12.67806
vt 1.00000 12.67806
vt 0.33333 14.69864
vt 1.00000 14.69864
vt 0.00000 4.99007
vt 0.00000 5.42559
vt 0.33333 5.42023
vt 0.33333 4.99007
vt 0.66667 4.99007
vt 0.66667 5.35504
vt 1.00000 5.42559
vt 1.00000 4.99007
vt 0.00000 5.79899
vt 0.33333 5.83571
vt 0.66667 5.75840
vt 1.00000 5.79899
vt 0.00000 6.11054
vt 0.33333 6.15714
vt 0.66667 6.07351
vt 1.00000 6.11054
vt 0.00000 6.42444
vt 0.33333 6.46850
vt 0.66667 6.42101
vt 1.00000 6.42444
vt 0.00000 6.72864
vt 0.33333 6.72864
vt 0.66667 6.72864
vt 1.00000 6.72864
vt 0.00000 8.66885
vt 0.33333 8.66885
vt 0.66667 8.66885
vt 1.00000 8.66885
vt 0.00000 10.69869
vt 0.33333 10.69869
vt 0.66667 10.69869
vt 1.00000 10.69869
vt 0.00000 12.86573
vt 0.33333 12.86573
vt 0.66667 12.86573
vt 1.00000 12.86573
vt 0.33333 14.77442
vt 1.00000 14.77442
vt 0.00000 3.77847
vt 0.00000 4.19851
vt 0.33333 4.15346
vt 0.33333 3.77847
vt 0.66667 3.77847
vt 0.66667 4.10038
vt 1.00000 4.19851
vt 1.00000 3.77847
vt 0.00000 4.51907
vt 0.33333 4.50723
vt 0.66667 4.44209
vt 1.00000 4.51907
vt 0.00000 4.78352
vt 0.33333 4.78492
vt 0.66667 4.71591
vt 1.00000 4.78352
vt 0.00000 5.01746
vt 0.33333 5.04082
vt 0.66667 5.00118
vt 1.00000 5.01746
vt 0.00000 5.24708
vt 0.33333 5.24708
vt 0.66667 5.24708
vt 1.00000 5.24708
vt 0.00000 6.89499
vt 0.33333 6.89499
vt 0.66667 6.89499
vt 1.00000 6.89499
vt 0.00000 8.68083
vt 0.33333 8.68083
vt 0.66667 8.68083
vt 1.00000 8.68083
vt 0.00000 10.48877
vt 0.33333 10.48877
vt 0.66667 10.48877
vt 1.00000 10.48877
vt 0.00000 12.20655
vt 0.33333 12.20655
vt 0.66667 12.20655
vt 1.00000 12.20655
vt 0.33333 13.88130
vt 1.00000 13.88130
vt 0.00000 4.07019
vt 0.00000 4.47225
vt 0.33333 4.45542
vt 0.33333 4.07019
vt 0.66667 4.07019
vt 0.66667 4.39115
vt 1.00000 4.47225
vt 1.00000 4.07019
vt 0.00000 4.78616
vt 0.33333 4.82323
vt 0.66667 4.73500
vt 1.00000 4.78616
vt 0.00000 5.05648
vt 0.33333 5.10615
vt 0.66667 5.01104
vt 1.00000 5.05648
vt 0.00000 5.31215
vt 0.33333 5.36748
vt 0.66667 5.30771
vt 1.00000 5.31215
vt 0.00000 5.57194
vt 0.33333 5.57194
vt 0.66667 5.57194
vt 1.00000 5.57194
vt 0.00000 7.28731
vt 0.33333 7.28731
vt 0.66667 7.28731
vt 1.00000 7.28731
vt 0.00000 8.98547
vt 0.33333 8.98547
vt 0.66667 8.98547
vt 1.00000 8.98547
vt 0.00000 10.87812
vt 0.33333 10.87812
vt 0.66667 10.87812
vt 1.00000 10.87812
vt 0.00000 12.52106
vt 0.33333 12.52106
vt 0.66667 12.52106
vt 1.00000 12.52106
vt 0.33333 14.30533
vt 1.00000 14.30533
vt 0.00000 7.64881
vt 0.00000 8.78207
vt 0.33333 9.10503
vt 0.33333 7.64881
vt 0.66667 7.64881
vt 0.66667 9.03310
vt 1.00000 8.78207
vt 1.00000 7.64881
vt 0.00000 10.23019
vt 0.33333 10.58378
vt 0.66667 10.51133
vt 1.00000 10.23019
vt 0.00000 12.31700
vt 0.33333 12.31700
vt 0.66667 12.31700
vt 1.00000 12.31700
vt 0.33333 16.88391
vt 1.00000 16.88391
vt 0.00000 7.32365
vt 0.00000 7.94028
vt 0.33333 8.15984
vt 0.33333 7.32365
vt 0.66667 7.32365
vt 0.66667 8.01980
vt 1.00000 7.94028
vt 1.00000 7.32365
vt 0.00000 8.73677
vt 0.33333 9.05804
vt 0.66667 8.87957
vt 1.00000 8.73677
vt 0.00000 9.61057
vt 0.33333 9.87665
vt 0.66667 9.73947
vt 1.00000 9.61057
vt 0.00000 10.70415
vt 0.33333 10.70415
vt 0.66667 10.70415
vt 1.00000 10.70415
vt 0.00000 13.59130
vt 0.33333 13.59130
vt 0.66667 13.59130
vt 1.00000 13.59130
vt 0.33333 16.55457
vt 1.00000 16.55457
vt 0.00000 8.50592
vt 0.00000 9.60835
vt 0.33333 9.88800
vt 0.33333 8.50592
vt 0.66667 8.50592
vt 0.66667 9.79650
vt 1.00000 9.60835
vt 1.00000 8.50592
vt 0.00000 10.98430
vt 0.33333 11.29060
vt 0.66667 11.19113
vt 1.00000 10.98430
vt 0.00000 12.92715
vt 0.33333 12.92715
vt 0.66667 12.92715
vt 1.00000 12.92715
vt 0.33333 17.65424
vt 1.00000 17.65424
vt 0.00000 8.10368
vt 0.00000 9.31971
vt 0.33333 9.68173
vt 0.33333 8.10368
vt 0.66667 8.10368
vt 0.66667 9.57219
vt 1.00000 9.31971
vt 1.00000 8.10368
vt 0.00000 10.88612
vt 0.33333 11.28169
vt 0.66667 11.16542
vt 1.00000 10.88612
vt 0.00000 13.14478
vt 0.33333 13.14478
vt 0.66667 13.14478
vt 1.00000 13.14478
vt 0.33333 17.13140
vt 1.00000 17.13140
vt 0.00000 7.93067
vt 0.00000 9.01128
vt 0.33333 9.40377
vt 0.33333 7.93067
vt 0.66667 7.93067
vt 0.66667 9.32496
vt 1.00000 9.01128
vt 1.00000 7.93067
vt 0.00000 10.46289
vt 0.33333 10.89202
vt 0.66667 10.80897
vt 1.00000 10.46289
vt 0.00000 12.61820
vt 0.33333 12.61820
vt 0.66667 12.61820
vt 1.00000 12.61820
vt 0.33333 17.65956
vt 1.00000 17.65956
vt 0.00000 8.93325
vt 0.00000 10.14003
vt 0.33333 10.47673
vt 0.33333 8.93325
vt 0.66667 8.93325
vt 0.66667 10.34922
vt 1.00000 10.14003
vt 1.00000 8.93325
vt 0.00000 11.67355
vt 0.33333 12.04114
vt 0.66667 11.90140
vt 1.00000 11.67355
vt 0.00000 13.85687
vt 0.33333 13.85687
vt 0.66667 13.85687
vt 1.00000 13.85687
vt 0.33333 17.65353
vt 1.00000 17.65353
vt 0.00000 10.80912
vt 0.00000 11.87255
vt 0.33333 12.25482
vt 0.33333 10.80912
vt 0.66667 10.80912
vt 0.66667 12.13021
vt 1.00000 11.87255
vt 1.00000 10.80912
vt 0.00000 13.29097
vt 0.33333 13.70680
vt 0.66667 13.57111
vt 1.00000 13.29097
vt 0.00000 15.37389
vt 0.33333 15.37389
vt 0.66667 15.37389
vt 1.00000 15.37389
vt 0.33333 18.96248
vt 1.00000 18.96248
vt 0.00000 11.62527
vt 0.00000 13.72614
vt 0.33333 14.08224
vt 0.33333 11.62527
vt 0.66667 11.62527
vt 0.66667 13.90141
vt 1.00000 13.72614
vt 1.00000 11.62527
vt 0.00000 16.26945
vt 0.33333 16.65815
vt 0.66667 16.45857
vt 1.00000 16.26945
vt 0.00000 19.74418
vt 0.33333 19.74418
vt 0.66667 19.74418
vt 1.00000 19.74418
vt 0.00000 11.34115
vt 0.00000 12.34106
vt 0.33333 12.64343
vt 0.33333 11.34115
vt 0.66667 11.34115
vt 0.66667 12.49994
vt 1.00000 12.34106
vt 1.00000 11.34115
vt 0.00000 13.61059
vt 0.33333 13.94363
vt 0.66667 13.78361
vt 1.00000 13.61059
vt 0.00000 15.42550
vt 0.33333 15.42550
vt 0.66667 15.42550
vt 1.00000 15.42550
vt 0.33333 19.77478
vt 1.00000 19.77478
vt 0.00000 12.67842
vt 0.33333 12.67842
vt 0.66667 12.67842
vt 1.00000 12.67842
vt 0.33333 14.78113
vt 1.00000 14.78113
vt 0.00000 12.27475
vt 0.33333 12.27475
vt 0.66667 12.27475
vt 1.00000 12.27475
vt 0.33333 14.37954
vt 1.00000 14.37954
vt 0.00000 12.49617
vt 0.33333 12.49617
vt 0.66667 12.49617
vt 1.00000 12.49617
vt 0.33333 14.68772
vt 1.00000 14.68772
vt 0.00000 10.24162
vt 0.33333 10.24162
vt 0.66667 10.24162
vt 1.00000 10.24162
vt 0.00000 11.90467
vt 0.33333 11.90467
vt 0.66667 11.90467
vt 1.00000 11.90467
vt 0.33333 13.46226
vt 1.00000 13.46226
vt 0.00000 10.43396
vt 0.33333 10.43396
vt 0.66667 10.43396
vt 1.00000 10.43396
vt 0.00000 12.21793
vt 0.33333 12.21793
vt 0.66667 12.21793
vt 1.00000 12.21793
vt 0.33333 13.75364
vt 1.00000 13.75364
vt 0.00000 8.39240
vt 0.33333 8.39240
vt 0.66667 8.39240
vt 1.00000 8.39240
vt 0.00000 9.79528
vt 0.33333 9.79528
vt 0.66667 9.79528
vt 1.00000 9.79528
vt 0.00000 11.08670
vt 0.33333 11.08670
vt 0.66667 11.08670
vt 1.00000 11.08670
vt 0.33333 12.32375
vt 1.00000 12.32375
vt 0.00000 8.69962
vt 0.33333 8.69962
vt 0.66667 8.69962
vt 1.00000 8.69962
vt 0.00000 10.18056
vt 0.33333 10.18056
vt 0.66667 10.18056
vt 1.00000 10.18056
vt 0.00000 11.38175
vt 0.33333 11.38175
vt 0.66667 11.38175
vt 1.00000 11.38175
vt 0.33333 12.66610
vt 1.00000 12.66610
vt 0.00000 16.57057
vt 0.33333 16.57057
vt 0.66667 16.57057
vt 0.00000 13.25629
vt 0.33333 13.25629
vt 0.66667 13.25629
vt 1.00000 13.25629
vt 0.33333 15.79526
vt 1.00000 15.79526
vt 0.00000 17.03267
vt 0.33333 17.03267
vt 0.66667 17.03267
vt 0.00000 17.16306
vt 0.33333 17.16306
vt 0.66667 17.16306
vt 0.00000 10.95495
vt 0.33333 10.95495
vt 0.66667 10.95495
vt 1.00000 10.95495
vt 0.33333 13.95565
vt 1.00000 13.95565
vt 0.00000 17.90477
vt 0.33333 17.90477
vt 0.66667 17.90477
vt 0.00000 18.83810
vt 0.33333 18.83810
vt 0.66667 18.83810
vt 0.00000 17.08185
vt 0.33333 17.08185
vt 0.66667 17.08185
vt 0.00000 14.11178
vt 0.33333 14.11178
vt 0.66667 14.11178
vt 1.00000 14.11178
vt 0.33333 16.85446
vt 1.00000 16.85446
vt 0.00000 0.00000
vt 0.00000 0.87037
vt 0.25000 0.87037
vt 0.25000 0.00000
vt 0.50000 0.87037
vt 0.50000 0.00000
vt 0.75000 0.87037
vt 0.75000 0.00000
vt 1.00000 0.87037
vt 1.00000 0.00000
vt 0.00000 2.34164
vt 0.25000 2.34164
vt 0.50000 2.34164
vt 0.75000 2.34164
vt 1.00000 2.34164
vt 0.00000 4.10087
vt 0.25000 4.10087
vt 0.50000 4.10087
vt 0.75000 4.10087
vt 1.00000 4.10087
vt 0.00000 6.43247
vt 0.25000 6.43247
vt 0.50000 6.43247
vt 0.75000 6.43247
vt 1.00000 6.43247
vt 0.00000 9.14002
vt 0.25000 9.14002
vt 0.50000 9.14002
vt 0.75000 9.14002
vt 1.00000 9.14002
vt 0.00000 12.19465
vt 0.25000 12.19465
vt 0.50000 12.19465
vt 0.75000 12.19465
vt 1.00000 12.19465
vt 0.12500 12.16887
vt 0.37500 12.16887
vt 0.62500 12.16887
vt 0.87500 12.16887
vt 1.00000 0.50000
vt 0.50000 0.50000
vt 0.50000 0.00000
vt 0.50000 1.00000
vt 0.00000 0.50000
vt 0.50000 0.00000

g bark02
usemtl bark02
f 2/2/2 1/1/1 3/3/3
f 4/4/4 3/3/3 1/1/1
f 4/4/4 5/5/5 3/3/3
f 6/6/6 3/3/3 5/5/5
f 6/6/6 5/5/5 7/7/7
f 8/8/8 7/7/7 5/5/5
f 9/9/9 2/2/2 10/10/10
f 3/3/3 10/10/10 2/2/2
f 3/3/3 6/6/6 10/10/10
f 11/11/11 10/10/10 6/6/6
f 11/11/11 6/6/6 12/12/12
f 7/7/7 12/12/12 6/6/6
f 13/13/13 9/9/9 14/14/14
f 10/10/10 14/14/14 9/9/9
f 10/10/10 11/11/11 14/14/14
f 15/15/15 14/14/14 11/11/11
f 15/15/15 11/11/11 16/16/16
f 12/12/12 16/16/16 11/11/11
f 17/17/17 13/13/13 18/18/18
f 14/14/14 18/18/18 13/13/13
f 14/14/14 15/15/15 18/18/18
f 19/19/19 18/18/18 15/15/15
f 19/19/19 15/15/15 20/20/20
f 16/16/16 20/20/20 15/15/15
f 21/21/21 17/17/17 22/22/22
f 18/18/18 22/22/22 17/17/17
f 18/18/18 19/19/19 22/22/22
f 23/23/23 22/22/22 19/19/19
f 23/23/23 19/19/19 24/24/24
f 20/20/20 24/24/24 19/19/19
f 25/25/25 21/21/21 26/26/26
f 22/22/22 26/26/26 21/21/21
f 22/22/22 23/23/23 26/26/26
f 27/27/27 26/26/26 23/23/23
f 27/27/27 23/23/23 28/28/28
f 24/24/24 28/28/28 23/23/23
f 26/26/26 29/29/29 25/25/25
f 26/26/26 27/27/27 29/29/29
f 28/28/28 30/30/30 27/27/27
f 32/32/32 31/31/31 33/33/33
f 34/34/34 33/33/33 31/31/31
f 34/34/34 35/35/35 33/33/33
f 36/36/36 33/33/33 35/35/35
f 36/36/36 35/35/35 37/37/37
f 38/38/38 37/37/37 35/35/35
f 39/39/39 32/32/32 40/40/40
f 33/33/33 40/40/40 32/32/32
f 33/33/33 36/36/36 40/40/40
f 41/41/41 40/40/40 36/36/36
f 41/41/41 36/36/36 42/42/42
f 37/37/37 42/42/42 36/36/36
f 43/43/43 39/39/39 44/44/44
f 40/40/40 44/44/44 39/39/39
f 40/40/40 41/41/41 44/44/44
f 45/45/45 44/44/44 41/41/41
f 45/45/45 41/41/41 46/46/46
f 42/42/42 46/46/46 41/41/41
f 47/47/47 43/43/43 48/48/48
f 44/44/44 48/48/48 43/43/43
f 44/44/44 45/45/45 48/48/48
f 49/49/49 48/48/48 45/45/45
f 49/49/49 45/45/45 50/50/50
f 46/46/46 50/50/50 45/45/45
f 51/51/51 47/47/47 52/52/52
f 48/48/48 52/52/52 47/47/47
f 48/48/48 49/49/49 52/52/52
f 53/53/53 52/52/52 49/49/49
f 53/53/53 49/49/49 54/54/54
f 50/50/50 54/54/54 49/49/49
f 55/55/55 51/51/51 56/56/56
f 52/52/52 56/56/56 51/51/51
f 52/52/52 53/53/53 56/56/56
f 57/57/57 56/56/56 53/53/53
f 57/57/57 53/53/53 58/58/58
f 54/54/54 58/58/58 53/53/53
f 59/59/59 55/55/55 60/60/60
f 56/56/56 60/60/60 55/55/55
f 56/56/56 57/57/57 60/60/60
f 61/61/61 60/60/60 57/57/57
f 61/61/61 57/57/57 62/62/62
f 58/58/58 62/62/62 57/57/57
f 60/60/60 63/63/63 59/59/59
f 60/60/60 61/61/61 63/63/63
f 62/62/62 64/64/64 61/61/61
f 66/66/66 65/65/65 67/67/67
f 68/68/68 67/67/67 65/65/65
f 68/68/68 69/69/69 67/67/67
f 70/70/70 67/67/67 69/69/69
f 70/70/70 69/69/69 71/71/71
f 72/72/72 71/71/71 69/69/69
f 73/73/73 66/66/66 74/74/74
f 67/67/67 74/74/74 66/66/66
f 67/67/67 70/70/70 74/74/74
f 75/75/75 74/74/74 70/70/70
f 75/75/75 70/70/70 76/76/76
f 71/71/71 76/76/76 70/70/70
f 77/77/77 73/73/73 78/78/78
f 74/74/74 78/78/78 73/73/73
f 74/74/74 75/75/75 78/78/78
f 79/79/79 78/78/78 75/75/75
f 79/79/79 75/75/75 80/80/80
f 76/76/76 80/80/80 75/75/75
f 81/81/81 77/77/77 82/82/82
f 78/78/78 82/82/82 77/77/77
f 78/78/78 79/79/79 82/82/82
f 83/83/83 82/82/82 79/79/79
f 83/83/83 79/79/79 84/84/84
f 80/80/80 84/84/84 79/79/79
f 85/85/85 81/81/81 86/86/86
f 82/82/82 86/86/86 81/81/81
f 82/82/82 83/83/83 86/86/86
f 87/87/87 86/86/86 83/83/83
f 87/87/87 83/83/83 88/88/88
f 84/84/84 88/88/88 83/83/83
f 89/89/89 85/85/85 90/90/90
f 86/86/86 90/90/90 85/85/85
f 86/86/86 87/87/87 90/90/90
f 91/91/91 90/90/90 87/87/87
f 91/91/91 87/87/87 92/92/92
f 88/88/88 92/92/92 87/87/87
f 90/90/90 93/93/93 89/89/89
f 90/90/90 91/91/91 93/93/93
f 92/92/92 94/94/94 91/91/91
f 96/96/96 95/95/95 97/97/97
f 98/98/98 97/97/97 95/95/95
f 98/98/98 99/99/99 97/97/97
f 100/100/100 97/97/97 99/99/99
f 100/100/100 99/99/99 101/101/101
f 102/102/102 101/101/101 99/99/99
f 103/103/103 96/96/96 104/104/104
f 97/97/97 104/104/104 96/96/96
f 97/97/97 100/100/100 104/104/104
f 105/105/105 104/104/104 100/100/100
f 105/105/105 100/100/100 106/106/106
f 101/101/101 106/106/106 100/100/100
f 107/107/107 103/103/103 108/108/108
f 104/104/104 108/108/108 103/103/103
f 104/104/104 105/105/105 108/108/108
f 109/109/109 108/108/108 105/105/105
f 109/109/109 105/105/105 110/110/110
f 106/106/106 110/110/110 105/105/105
f 111/111/111 107/107/107 112/112/112
f 108/108/108 112/112/112 107/107/107
f 108/108/108 109/109/109 112/112/112
f 113/113/113 112/112/112 109/109/109
f 113/113/113 109/109/109 114/114/114
f 110/110/110 114/114/114 109/109/109
f 115/115/115 111/111/111 116/116/116
f 112/112/112 116/116/116 111/111/111
f 112/112/112 113/113/113 116/116/116
f 117/117/117 116/116/116 113/113/113
f 117/117/117 113/113/113 118/118/118
f 114/114/114 118/118/118 113/113/113
f 119/119/119 115/115/115 120/120/120
f 116/116/116 120/120/120 115/115/115
f 116/116/116 117/117/117 120/120/120
f 121/121/121 120/120/120 117/117/117
f 121/121/121 117/117/117 122/122/122
f 118/118/118 122/122/122 117/117/117
f 123/123/123 119/119/119 124/124/124
f 120/120/120 124/124/124 119/119/119
f 120/120/120 121/121/121 124/124/124
f 125/125/125 124/124/124 121/121/121
f 125/125/125 121/121/121 126/126/126
f 122/122/122 126/126/126 121/121/121
f 127/127/127 123/123/123 128/128/128
f 124/124/124 128/128/128 123/123/123
f 124/124/124 125/125/125 128/128/128
f 129/129/129 128/128/128 125/125/125
f 129/129/129 125/125/125 130/130/130
f 126/126/126 130/130/130 125/125/125
f 128/128/128 131/131/131 127/127/127
f 128/128/128 129/129/129 131/131/131
f 130/130/130 132/132/132 129/129/129
f 134/134/134 133/133/133 135/135/135
f 136/136/136 135/135/135 133/133/133
f 136/136/136 137/137/137 135/135/135
f 138/138/138 135/135/135 137/137/137
f 138/138/138 137/137/137 139/139/139
f 140/140/140 139/139/139 137/137/137
f 141/141/141 134/134/134 142/142/142
f 135/135/135 142/142/142 134/134/134
f 135/135/135 138/138/138 142/142/142
f 143/143/143 142/142/142 138/138/138
f 143/143/143 138/138/138 144/144/144
f 139/139/139 144/144/144 138/138/138
f 145/145/145 141/141/141 146/146/146
f 142/142/142 146/146/146 141/141/141
f 142/142/142 143/143/143 146/146/146
f 147/147/147 146/146/146 143/143/143
f 147/147/147 143/143/143 148/148/148
f 144/144/144 148/148/148 143/143/143
f 149/149/149 145/145/145 150/150/150
f 146/146/146 150/150/150 145/145/145
f 146/146/146 147/147/147 150/150/150
f 151/151/151 150/150/150 147/147/147
f 151/151/151 147/147/147 152/152/152
f 148/148/148 152/152/152 147/147/147
f 153/153/153 149/149/149 154/154/154
f 150/150/150 154/154/154 149/149/149
f 150/150/150 151/151/151 154/154/154
f 155/155/155 154/154/154 151/151/151
f 155/155/155 151/151/151 156/156/156
f 152/152/152 156/156/156 151/151/151
f 157/157/157 153/153/153 158/158/158
f 154/154/154 158/158/158 153/153/153
f 154/154/154 155/155/155 158/158/158
f 159/159/159 158/158/158 155/155/155
f 159/159/159 155/155/155 160/160/160
f 156/156/156 160/160/160 155/155/155
f 161/161/161 157/157/157 162/162/162
f 158/158/158 162/162/162 157/157/157
f 158/158/158 159/159/159 162/162/162
f 163/163/163 162/162/162 159/159/159
f 163/163/163 159/159/159 164/164/164
f 160/160/160 164/164/164 159/159/159
f 165/165/165 161/161/161 166/166/166
f 162/162/162 166/166/166 161/161/161
f 162/162/162 163/163/163 166/166/166
f 167/167/167 166/166/166 163/163/163
f 167/167/167 163/163/163 168/168/168
f 164/164/164 168/168/168 163/163/163
f 166/166/166 169/169/169 165/165/165
f 166/166/166 167/167/167 169/169/169
f 168/168/168 170/170/170 167/167/167
f 172/172/172 171/171/171 173/173/173
f 174/174/174 173/173/173 171/171/171
f 174/174/174 175/175/175 173/173/173
f 176/176/176 173/173/173 175/175/175
f 176/176/176 175/175/175 177/177/177
f 178/178/178 177/177/177 175/175/175
f 179/179/179 172/172/172 180/180/180
f 173/173/173 180/180/180 172/172/172
f 173/173/173 176/176/176 180/180/180
f 181/181/181 180/180/180 176/176/176
f 181/181/181 176/176/176 182/182/182
f 177/177/177 182/182/182 176/176/176
f 183/183/183 179/179/179 184/184/184
f 180/180/180 184/184/184 179/179/179
f 180/180/180 181/181/181 184/184/184
f 185/185/185 184/184/184 181/181/181
f 185/185/185 181/181/181 186/186/186
f 182/182/182 186/186/186 181/181/181
f 187/187/187 183/183/183 188/188/188
f 184/184/184 188/188/188 183/183/183
f 184/184/184 185/185/185 188/188/188
f 189/189/189 188/188/188 185/185/185
f 189/189/189 185/185/185 190/190/190
f 186/186/186 190/190/190 185/185/185
f 191/191/191 187/187/187 192/192/192
f 188/188/188 192/192/192 187/187/187
f 188/188/188 189/189/189 192/192/192
f 193/193/193 192/192/192 189/189/189
f 193/193/193 189/189/189 194/194/194
f 190/190/190 194/194/194 189/189/189
f 195/195/195 191/191/191 196/196/196
f 192/192/192 196/196/196 191/191/191
f 192/192/192 193/193/193 196/196/196
f 197/197/197 196/196/196 193/193/193
f 197/197/197 193/193/193 198/198/198
f 194/194/194 198/198/198 193/193/193
f 199/199/199 195/195/195 200/200/200
f 196/196/196 200/200/200 195/195/195
f 196/196/196 197/197/197 200/200/200
f 201/201/201 200/200/200 197/197/197
f 201/201/201 197/197/197 202/202/202
f 198/198/198 202/202/202 197/197/197
f 203/203/203 199/199/199 204/204/204
f 200/200/200 204/204/204 199/199/199
f 200/200/200 201/201/201 204/204/204
f 205/205/205 204/204/204 201/201/201
f 205/205/205 201/201/201 206/206/206
f 202/202/202 206/206/206 201/201/201
f 207/207/207 203/203/203 208/208/208
f 204/204/204 208/208/208 203/203/203
f 204/204/204 205/205/205 208/208/208
f 209/209/209 208/208/208 205/205/205
f 209/209/209 205/205/205 210/210/210
f 206/206/206 210/210/210 205/205/205
f 208/208/208 211/211/211 207/207/207
f 208/208/208 209/209/209 211/211/211
f 210/210/210 212/212/212 209/209/209
f 214/214/214 213/213/213 215/215/215
f 216/216/216 215/215/215 213/213/213
f 216/216/216 217/217/217 215/215/215
f 218/218/218 215/215/215 217/217/217
f 218/218/218 217/217/217 219/219/219
f 220/220/220 219/219/219 217/217/217
f 221/221/221 214/214/214 222/222/222
f 215/215/215 222/222/222 214/214/214
f 215/215/215 218/218/218 222/222/222
f 223/223/223 222/222/222 218/218/218
f 223/223/223 218/218/218 224/224/224
f 219/219/219 224/224/224 218/218/218
f 225/225/225 221/221/221 226/226/226
f 222/222/222 226/226/226 221/221/221
f 222/222/222 223/223/223 226/226/226
f 227/227/227 226/226/226 223/223/223
f 227/227/227 223/223/223 228/228/228
f 224/224/224 228/228/228 223/223/223
f 229/229/229 225/225/225 230/230/230
f 226/226/226 230/230/230 225/225/225
f 226/226/226 227/227/227 230/230/230
f 231/231/231 230/230/230 227/227/227
f 231/231/231 227/227/227 232/232/232
f 228/228/228 232/232/232 227/227/227
f 233/233/233 229/229/229 234/234/234
f 230/230/230 234/234/234 229/229/229
f 230/230/230 231/231/231 234/234/234
f 235/235/235 234/234/234 231/231/231
f 235/235/235 231/231/231 236/236/236
f 232/232/232 236/236/236 231/231/231
f 237/237/237 233/233/233 238/238/238
f 234/234/234 238/238/238 233/233/233
f 234/234/234 235/235/235 238/238/238
f 239/239/239 238/238/238 235/235/235
f 239/239/239 235/235/235 240/240/240
f 236/236/236 240/240/240 235/235/235
f 241/241/241 237/237/237 242/242/242
f 238/238/238 242/242/242 237/237/237
f 238/238/238 239/239/239 242/242/242
f 243/243/243 242/242/242 239/239/239
f 243/243/243 239/239/239 244/244/244
f 240/240/240 244/244/244 239/239/239
f 245/245/245 241/241/241 246/246/246
f 242/242/242 246/246/246 241/241/241
f 242/242/242 243/243/243 246/246/246
f 247/247/247 246/246/246 243/243/243
f 247/247/247 243/243/243 248/248/248
f 244/244/244 248/248/248 243/243/243
f 249/249/249 245/245/245 250/250/250
f 246/246/246 250/250/250 245/245/245
f 246/246/246 247/247/247 250/250/250
f 251/251/251 250/250/250 247/247/247
f 251/251/251 247/247/247 252/252/252
f 248/248/248 252/252/252 247/247/247
f 250/250/250 253/253/253 249/249/249
f 250/250/250 251/251/251 253/253/253
f 252/252/252 254/254/254 251/251/251
f 256/256/256 255/255/255 257/257/257
f 258/258/258 257/257/257 255/255/255
f 258/258/258 259/259/259 257/257/257
f 260/260/260 257/257/257 259/259/259
f 260/260/260 259/259/259 261/261/261
f 262/262/262 261/261/261 259/259/259
f 263/263/263 256/256/256 264/264/264
f 257/257/257 264/264/264 256/256/256
f 257/257/257 260/260/260 264/264/264
f 265/265/265 264/264/264 260/260/260
f 265/265/265 260/260/260 266/266/266
f 261/261/261 266/266/266 260/260/260
f 267/267/267 263/263/263 268/268/268
f 264/264/264 268/268/268 263/263/263
f 264/264/264 265/265/265 268/268/268
f 269/269/269 268/268/268 265/265/265
f 269/269/269 265/265/265 270/270/270
f 266/266/266 270/270/270 265/265/265
f 268/268/268 271/271/271 267/267/267
f 268/268/268 269/269/269 271/271/271
f 270/270/270 272/272/272 269/269/269
f 274/274/274 273/273/273 275/275/275
f 276/276/276 275/275/275 273/273/273
f 276/276/276 277/277/277 275/275/275
f 278/278/278 275/275/275 277/277/277
f 278/278/278 277/277/277 279/279/279
f 280/280/280 279/279/279 277/277/277
f 281/281/281 274/274/274 282/282/282
f 275/275/275 282/282/282 274/274/274
f 275/275/275 278/278/278 282/282/282
f 283/283/283 282/282/282 278/278/278
f 283/283/283 278/278/278 284/284/284
f 279/279/279 284/284/284 278/278/278
f 285/285/285 281/281/281 286/286/286
f 282/282/282 286/286/286 281/281/281
f 282/282/282 283/283/283 286/286/286
f 287/287/287 286/286/286 283/283/283
f 287/287/287 283/283/283 288/288/288
f 284/284/284 288/288/288 283/283/283
f 289/289/289 285/285/285 290/290/290
f 286/286/286 290/290/290 285/285/285
f 286/286/286 287/287/287 290/290/290
f 291/291/291 290/290/290 287/287/287
f 291/291/291 287/287/287 292/292/292
f 288/288/288 292/292/292 287/287/287
f 293/293/293 289/289/289 294/294/294
f 290/290/290 294/294/294 289/289/289
f 290/290/290 291/291/291 294/294/294
f 295/295/295 294/294/294 291/291/291
f 295/295/295 291/291/291 296/296/296
f 292/292/292 296/296/296 291/291/291
f 294/294/294 297/297/297 293/293/293
f 294/294/294 295/295/295 297/297/297
f 296/296/296 298/298/298 295/295/295
f 300/300/300 299/299/299 301/301/301
f 302/302/302 301/301/301 299/299/299
f 302/302/302 303/303/303 301/301/301
f 304/304/304 301/301/301 303/303/303
f 304/304/304 303/303/303 305/305/305
f 306/306/306 305/305/305 303/303/303
f 307/307/307 300/300/300 308/308/308
f 301/301/301 308/308/308 300/300/300
f 301/301/301 304/304/304 308/308/308
f 309/309/309 308/308/308 304/304/304
f 309/309/309 304/304/304 310/310/310
f 305/305/305 310/310/310 304/304/304
f 311/311/311 307/307/307 312/312/312
f 308/308/308 312/312/312 307/307/307
f 308/308/308 309/309/309 312/312/312
f 313/313/313 312/312/312 309/309/309
f 313/313/313 309/309/309 314/314/314
f 310/310/310 314/314/314 309/309/309
f 312/312/312 315/315/315 311/311/311
f 312/312/312 313/313/313 315/315/315
f 314/314/314 316/316/316 313/313/313
f 318/318/318 317/317/317 319/319/319
f 320/320/320 319/319/319 317/317/317
f 320/320/320 321/321/321 319/319/319
f 322/322/322 319/319/319 321/321/321
f 322/322/322 321/321/321 323/323/323
f 324/324/324 323/323/323 321/321/321
f 325/325/325 318/318/318 326/326/326
f 319/319/319 326/326/326 318/318/318
f 319/319/319 322/322/322 326/326/326
f 327/327/327 326/326/326 322/322/322
f 327/327/327 322/322/322 328/328/328
f 323/323/323 328/328/328 322/322/322
f 329/329/329 325/325/325 330/330/330
f 326/326/326 330/330/330 325/325/325
f 326/326/326 327/327/327 330/330/330
f 331/331/331 330/330/330 327/327/327
f 331/331/331 327/327/327 332/332/332
f 328/328/328 332/332/332 327/327/327
f 330/330/330 333/333/333 329/329/329
f 330/330/330 331/331/331 333/333/333
f 332/332/332 334/334/334 331/331/331
f 336/336/336 335/335/335 337/337/337
f 338/338/338 337/337/337 335/335/335
f 338/338/338 339/339/339 337/337/337
f 340/340/340 337/337/337 339/339/339
f 340/340/340 339/339/339 341/341/341
f 342/342/342 341/341/341 339/339/339
f 343/343/343 336/336/336 344/344/344
f 337/337/337 344/344/344 336/336/336
f 337/337/337 340/340/340 344/344/344
f 345/345/345 344/344/344 340/340/340
f 345/345/345 340/340/340 346/346/346
f 341/341/341 346/346/346 340/340/340
f 347/347/347 343/343/343 348/348/348
f 344/344/344 348/348/348 343/343/343
f 344/344/344 345/345/345 348/348/348
f 349/349/349 348/348/348 345/345/345
f 349/349/349 345/345/345 350/350/350
f 346/346/346 350/350/350 345/345/345
f 348/348/348 351/351/351 347/347/347
f 348/348/348 349/349/349 351/351/351
f 350/350/350 352/352/352 349/349/349
f 354/354/354 353/353/353 355/355/355
f 356/356/356 355/355/355 353/353/353
f 356/356/356 357/357/357 355/355/355
f 358/358/358 355/355/355 357/357/357
f 358/358/358 357/357/357 359/359/359
f 360/360/360 359/359/359 357/357/357
f 361/361/361 354/354/354 362/362/362
f 355/355/355 362/362/362 354/354/354
f 355/355/355 358/358/358 362/362/362
f 363/363/363 362/362/362 358/358/358
f 363/363/363 358/358/358 364/364/364
f 359/359/359 364/364/364 358/358/358
f 365/365/365 361/361/361 366/366/366
f 362/362/362 366/366/366 361/361/361
f 362/362/362 363/363/363 366/366/366
f 367/367/367 366/366/366 363/363/363
f 367/367/367 363/363/363 368/368/368
f 364/364/364 368/368/368 363/363/363
f 366/366/366 369/369/369 365/365/365
f 366/366/366 367/367/367 369/369/369
f 368/368/368 370/370/370 367/367/367
f 372/372/372 371/371/371 373/373/373
f 374/374/374 373/373/373 371/371/371
f 374/374/374 375/375/375 373/373/373
f 376/376/376 373/373/373 375/375/375
f 376/376/376 375/375/375 377/377/377
f 378/378/378 377/377/377 375/375/375
f 379/379/379 372/372/372 380/380/380
f 373/373/373 380/380/380 372/372/372
f 373/373/373 376/376/376 380/380/380
f 381/381/381 380/380/380 376/376/376
f 381/381/381 376/376/376 382/382/382
f 377/377/377 382/382/382 376/376/376
f 383/383/383 379/379/379 384/384/384
f 380/380/380 384/384/384 379/379/379
f 380/380/380 381/381/381 384/384/384
f 385/385/385 384/384/384 381/381/381
f 385/385/385 381/381/381 386/386/386
f 382/382/382 386/386/386 381/381/381
f 384/384/384 387/387/387 383/383/383
f 384/384/384 385/385/385 387/387/387
f 386/386/386 388/388/388 385/385/385
f 390/390/390 389/389/389 391/391/391
f 392/392/392 391/391/391 389/389/389
f 392/392/392 393/393/393 391/391/391
f 394/394/394 391/391/391 393/393/393
f 394/394/394 393/393/393 395/395/395
f 396/396/396 395/395/395 393/393/393
f 397/397/397 390/390/390 398/398/398
f 391/391/391 398/398/398 390/390/390
f 391/391/391 394/394/394 398/398/398
f 399/399/399 398/398/398 394/394/394
f 399/399/399 394/394/394 400/400/400
f 395/395/395 400/400/400 394/394/394
f 401/401/401 397/397/397 402/402/402
f 398/398/398 402/402/402 397/397/397
f 398/398/398 399/399/399 402/402/402
f 403/403/403 402/402/402 399/399/399
f 403/403/403 399/399/399 404/404/404
f 400/400/400 404/404/404 399/399/399
f 406/406/406 405/405/405 407/407/407
f 408/408/408 407/407/407 405/405/405
f 408/408/408 409/409/409 407/407/407
f 410/410/410 407/407/407 409/409/409
f 410/410/410 409/409/409 411/411/411
f 412/412/412 411/411/411 409/409/409
f 413/413/413 406/406/406 414/414/414
f 407/407/407 414/414/414 406/406/406
f 407/407/407 410/410/410 414/414/414
f 415/415/415 414/414/414 410/410/410
f 415/415/415 410/410/410 416/416/416
f 411/411/411 416/416/416 410/410/410
f 417/417/417 413/413/413 418/418/418
f 414/414/414 418/418/418 413/413/413
f 414/414/414 415/415/415 418/418/418
f 419/419/419 418/418/418 415/415/415
f 419/419/419 415/415/415 420/420/420
f 416/416/416 420/420/420 415/415/415
f 418/418/418 421/421/421 417/417/417
f 418/418/418 419/419/419 421/421/421
f 420/420/420 422/422/422 419/419/419
f 21/21/21 22/22/22 423/423/423
f 424/424/424 423/423/423 22/22/22
f 22/22/22 23/23/23 424/424/424
f 425/425/425 424/424/424 23/23/23
f 23/23/23 24/24/24 425/425/425
f 426/426/426 425/425/425 24/24/24
f 424/424/424 427/427/427 423/423/423
f 424/424/424 425/425/425 427/427/427
f 426/426/426 428/428/428 425/425/425
f 55/55/55 56/56/56 429/429/429
f 430/430/430 429/429/429 56/56/56
f 56/56/56 57/57/57 430/430/430
f 431/431/431 430/430/430 57/57/57
f 57/57/57 58/58/58 431/431/431
f 432/432/432 431/431/431 58/58/58
f 430/430/430 433/433/433 429/429/429
f 430/430/430 431/431/431 433/433/433
f 432/432/432 434/434/434 431/431/431
f 85/85/85 86/86/86 435/435/435
f 436/436/436 435/435/435 86/86/86
f 86/86/86 87/87/87 436/436/436
f 437/437/437 436/436/436 87/87/87
f 87/87/87 88/88/88 437/437/437
f 438/438/438 437/437/437 88/88/88
f 436/436/436 439/439/439 435/435/435
f 436/436/436 437/437/437 439/439/439
f 438/438/438 440/440/440 437/437/437
f 119/119/119 120/120/120 441/441/441
f 442/442/442 441/441/441 120/120/120
f 120/120/120 121/121/121 442/442/442
f 443/443/443 442/442/442 121/121/121
f 121/121/121 122/122/122 443/443/443
f 444/444/444 443/443/443 122/122/122
f 445/445/445 441/441/441 446/446/446
f 442/442/442 446/446/446 441/441/441
f 442/442/442 443/443/443 446/446/446
f 447/447/447 446/446/446 443/443/443
f 447/447/447 443/443/443 448/448/448
f 444/444/444 448/448/448 443/443/443
f 446/446/446 449/449/449 445/445/445
f 446/446/446 447/447/447 449/449/449
f 448/448/448 450/450/450 447/447/447
f 157/157/157 158/158/158 451/451/451
f 452/452/452 451/451/451 158/158/158
f 158/158/158 159/159/159 452/452/452
f 453/453/453 452/452/452 159/159/159
f 159/159/159 160/160/160 453/453/453
f 454/454/454 453/453/453 160/160/160
f 455/455/455 451/451/451 456/456/456
f 452/452/452 456/456/456 451/451/451
f 452/452/452 453/453/453 456/456/456
f 457/457/457 456/456/456 453/453/453
f 457/457/457 453/453/453 458/458/458
f 454/454/454 458/458/458 453/453/453
f 456/456/456 459/459/459 455/455/455
f 456/456/456 457/457/457 459/459/459
f 458/458/458 460/460/460 457/457/457
f 195/195/195 196/196/196 461/461/461
f 462/462/462 461/461/461 196/196/196
f 196/196/196 197/197/197 462/462/462
f 463/463/463 462/462/462 197/197/197
f 197/197/197 198/198/198 463/463/463
f 464/464/464 463/463/463 198/198/198
f 465/465/465 461/461/461 466/466/466
f 462/462/462 466/466/466 461/461/461
f 462/462/462 463/463/463 466/466/466
f 467/467/467 466/466/466 463/463/463
f 467/467/467 463/463/463 468/468/468
f 464/464/464 468/468/468 463/463/463
f 469/469/469 465/465/465 470/470/470
f 466/466/466 470/470/470 465/465/465
f 466/466/466 467/467/467 470/470/470
f 471/471/471 470/470/470 467/467/467
f 471/471/471 467/467/467 472/472/472
f 468/468/468 472/472/472 467/467/467
f 470/470/470 473/473/473 469/469/469
f 470/470/470 471/471/471 473/473/473
f 472/472/472 474/474/474 471/471/471
f 237/237/237 238/238/238 475/475/475
f 476/476/476 475/475/475 238/238/238
f 238/238/238 239/239/239 476/476/476
f 477/477/477 476/476/476 239/239/239
f 239/239/239 240/240/240 477/477/477
f 478/478/478 477/477/477 240/240/240
f 479/479/479 475/475/475 480/480/480
f 476/476/476 480/480/480 475/475/475
f 476/476/476 477/477/477 480/480/480
f 481/481/481 480/480/480 477/477/477
f 481/481/481 477/477/477 482/482/482
f 478/478/478 482/482/482 477/477/477
f 483/483/483 479/479/479 484/484/484
f 480/480/480 484/484/484 479/479/479
f 480/480/480 481/481/481 484/484/484
f 485/485/485 484/484/484 481/481/481
f 485/485/485 481/481/481 486/486/486
f 482/482/482 486/486/486 481/481/481
f 484/484/484 487/487/487 483/483/483
f 484/484/484 485/485/485 487/487/487
f 486/486/486 488/488/488 485/485/485
f 267/267/267 268/268/268 489/489/489
f 268/268/268 269/269/269 490/490/490
f 269/269/269 270/270/270 491/491/491
f 289/289/289 290/290/290 492/492/492
f 493/493/493 492/492/492 290/290/290
f 290/290/290 291/291/291 493/493/493
f 494/494/494 493/493/493 291/291/291
f 291/291/291 292/292/292 494/494/494
f 495/495/495 494/494/494 292/292/292
f 493/493/493 496/496/496 492/492/492
f 493/493/493 494/494/494 496/496/496
f 495/495/495 497/497/497 494/494/494
f 311/311/311 312/312/312 498/498/498
f 312/312/312 313/313/313 499/499/499
f 313/313/313 314/314/314 500/500/500
f 329/329/329 330/330/330 501/501/501
f 330/330/330 331/331/331 502/502/502
f 331/331/331 332/332/332 503/503/503
f 335/335/335 338/338/338 504/504/504
f 505/505/505 504/504/504 338/338/338
f 338/338/338 339/339/339 505/505/505
f 506/506/506 505/505/505 339/339/339
f 339/339/339 342/342/342 506/506/506
f 507/507/507 506/506/506 342/342/342
f 505/505/505 508/508/508 504/504/504
f 505/505/505 506/506/506 508/508/508
f 507/507/507 509/509/509 506/506/506
f 365/365/365 366/366/366 510/510/510
f 366/366/366 367/367/367 511/511/511
f 367/367/367 368/368/368 512/512/512
f 383/383/383 384/384/384 513/513/513
f 384/384/384 385/385/385 514/514/514
f 385/385/385 386/386/386 515/515/515
f 389/389/389 392/392/392 516/516/516
f 392/392/392 393/393/393 517/517/517
f 393/393/393 396/396/396 518/518/518
f 405/405/405 408/408/408 519/519/519
f 520/520/520 519/519/519 408/408/408
f 408/408/408 409/409/409 520/520/520
f 521/521/521 520/520/520 409/409/409
f 409/409/409 412/412/412 521/521/521
f 522/522/522 521/521/521 412/412/412
f 520/520/520 523/523/523 519/519/519
f 520/520/520 521/521/521 523/523/523
f 522/522/522 524/524/524 521/521/521
f 526/526/526 525/525/525 527/527/527
f 528/528/528 527/527/527 525/525/525
f 527/527/527 528/528/528 529/529/529
f 530/530/530 529/529/529 528/528/528
f 529/529/529 530/530/530 531/531/531
f 532/532/532 531/531/531 530/530/530
f 531/531/531 532/532/532 533/533/533
f 534/534/534 533/533/533 532/532/532
f 535/535/535 526/526/526 536/536/536
f 527/527/527 536/536/536 526/526/526
f 527/527/527 529/529/529 536/536/536
f 537/537/537 536/536/536 529/529/529
f 537/537/537 529/529/529 538/538/538
f 531/531/531 538/538/538 529/529/529
f 531/531/531 533/533/533 538/538/538
f 539/539/539 538/538/538 533/533/533
f 540/540/540 535/535/535 541/541/541
f 536/536/536 541/541/541 535/535/535
f 536/536/536 537/537/537 541/541/541
f 542/542/542 541/541/541 537/537/537
f 542/542/542 537/537/537 543/543/543
f 538/538/538 543/543/543 537/537/537
f 538/538/538 539/539/539 543/543/543
f 544/544/544 543/543/543 539/539/539
f 545/545/545 540/540/540 546/546/546
f 541/541/541 546/546/546 540/540/540
f 541/541/541 542/542/542 546/546/546
f 547/547/547 546/546/546 542/542/542
f 547/547/547 542/542/542 548/548/548
f 543/543/543 548/548/548 542/542/542
f 543/543/543 544/544/544 548/548/548
f 549/549/549 548/548/548 544/544/544
f 550/550/550 545/545/545 551/551/551
f 546/546/546 551/551/551 545/545/545
f 546/546/546 547/547/547 551/551/551
f 552/552/552 551/551/551 547/547/547
f 552/552/552 547/547/547 553/553/553
f 548/548/548 553/553/553 547/547/547
f 548/548/548 549/549/549 553/553/553
f 554/554/554 553/553/553 549/549/549
f 555/555/555 550/550/550 556/556/556
f 551/551/551 556/556/556 550/550/550
f 551/551/551 552/552/552 556/556/556
f 557/557/557 556/556/556 552/552/552
f 557/557/557 552/552/552 558/558/558
f 553/553/553 558/558/558 552/552/552
f 553/553/553 554/554/554 558/558/558
f 559/559/559 558/558/558 554/554/554
f 555/555/555 556/556/556 560/560/560
f 556/556/556 557/557/557 561/561/561
f 557/557/557 558/558/558 562/562/562
f 558/558/558 559/559/559 563/563/563

g 
usemtl 
f 565/565/565 564/564/564 566/566/566
f 565/565/565 567/567/567 564/564/564
f 565/565/565 568/568/568 567/567/567
f 565/565/565 569/569/569 568/568/568

